<svg xmlns="http://www.w3.org/2000/svg" xmlns:xlink="http://www.w3.org/1999/xlink" width="1400" zoomAndPan="magnify" viewBox="0 0 1050 525.000007" height="700" preserveAspectRatio="xMidYMid meet" version="1.0"><defs><g/></defs><g fill="#7ca5b8" fill-opacity="1"><g transform="translate(244.167718, 281.838177)"><g><path d="M 3.953125 -3.59375 C 3.785156 -3.96875 3.613281 -4.320312 3.4375 -4.65625 C 3.269531 -5 3.101562 -5.304688 2.9375 -5.578125 C 2.53125 -6.390625 2.175781 -7.113281 1.875 -7.75 C 1.570312 -8.394531 1.285156 -9.140625 1.015625 -9.984375 C 1.117188 -10.554688 1.296875 -11.519531 1.546875 -12.875 C 1.796875 -14.226562 2.085938 -15.707031 2.421875 -17.3125 C 2.765625 -18.914062 3.128906 -20.546875 3.515625 -22.203125 C 3.910156 -23.859375 4.3125 -25.273438 4.71875 -26.453125 C 5.082031 -27.503906 5.492188 -28.617188 5.953125 -29.796875 C 6.410156 -30.984375 6.914062 -32.078125 7.46875 -33.078125 C 8.03125 -34.078125 8.628906 -34.929688 9.265625 -35.640625 C 9.910156 -36.347656 10.609375 -36.769531 11.359375 -36.90625 C 11.554688 -36.632812 11.773438 -36.421875 12.015625 -36.265625 C 12.253906 -36.117188 12.472656 -36.007812 12.671875 -35.9375 C 13.242188 -35.125 13.800781 -34.4375 14.34375 -33.875 C 14.882812 -33.320312 15.523438 -32.773438 16.265625 -32.234375 C 16.066406 -31.222656 15.769531 -30.097656 15.375 -28.859375 C 14.988281 -27.628906 14.582031 -26.390625 14.15625 -25.140625 C 13.738281 -23.890625 13.328125 -22.679688 12.921875 -21.515625 C 12.515625 -20.347656 12.195312 -19.34375 11.96875 -18.5 C 11.757812 -17.820312 11.554688 -17.046875 11.359375 -16.171875 C 11.179688 -15.429688 11 -14.535156 10.8125 -13.484375 C 10.632812 -12.429688 10.460938 -11.28125 10.296875 -10.03125 C 10.765625 -10.164062 11.296875 -10.4375 11.890625 -10.84375 C 12.484375 -11.25 13.03125 -11.671875 13.53125 -12.109375 C 14.144531 -12.617188 14.738281 -13.160156 15.3125 -13.734375 C 16.082031 -14.515625 16.738281 -15.222656 17.28125 -15.859375 C 17.820312 -16.503906 18.320312 -17.171875 18.78125 -17.859375 C 19.238281 -18.554688 19.710938 -19.316406 20.203125 -20.140625 C 20.691406 -20.972656 21.273438 -21.960938 21.953125 -23.109375 C 22.554688 -24.085938 23.1875 -25.132812 23.84375 -26.25 C 24.507812 -27.375 25.175781 -28.441406 25.84375 -29.453125 C 26.519531 -30.460938 27.179688 -31.398438 27.828125 -32.265625 C 28.472656 -33.128906 29.066406 -33.796875 29.609375 -34.265625 C 29.972656 -33.890625 30.398438 -33.5 30.890625 -33.09375 C 31.378906 -32.6875 31.910156 -32.398438 32.484375 -32.234375 C 32.722656 -31.867188 32.953125 -31.539062 33.171875 -31.25 C 33.390625 -30.957031 33.601562 -30.675781 33.8125 -30.40625 C 34.082031 -30.039062 34.328125 -29.703125 34.546875 -29.390625 C 34.765625 -29.085938 34.957031 -28.753906 35.125 -28.390625 C 35.09375 -28.117188 35.035156 -27.757812 34.953125 -27.3125 C 34.867188 -26.875 34.773438 -26.394531 34.671875 -25.875 C 34.566406 -25.351562 34.457031 -24.820312 34.34375 -24.28125 C 34.226562 -23.738281 34.117188 -23.210938 34.015625 -22.703125 C 33.671875 -21.179688 33.414062 -20.03125 33.25 -19.25 C 33.082031 -18.476562 32.960938 -17.875 32.890625 -17.4375 C 32.828125 -17 32.785156 -16.625 32.765625 -16.3125 C 32.753906 -16.007812 32.75 -15.59375 32.75 -15.0625 C 32.75 -14.65625 32.78125 -14.25 32.84375 -13.84375 C 32.914062 -13.46875 32.992188 -13.082031 33.078125 -12.6875 C 33.160156 -12.300781 33.320312 -11.941406 33.5625 -11.609375 L 35.984375 -13.484375 C 36.660156 -13.992188 37.3125 -14.710938 37.9375 -15.640625 C 38.5625 -16.566406 39.171875 -17.628906 39.765625 -18.828125 C 40.359375 -20.023438 40.941406 -21.328125 41.515625 -22.734375 C 42.085938 -24.140625 42.660156 -25.582031 43.234375 -27.0625 C 43.640625 -28.144531 44.050781 -29.21875 44.46875 -30.28125 C 44.894531 -31.351562 45.328125 -32.367188 45.765625 -33.328125 C 46.210938 -34.285156 46.644531 -35.160156 47.0625 -35.953125 C 47.488281 -36.753906 47.90625 -37.425781 48.3125 -37.96875 C 49.21875 -37.394531 50 -36.816406 50.65625 -36.234375 C 51.320312 -35.660156 51.898438 -35.023438 52.390625 -34.328125 C 52.878906 -33.640625 53.265625 -32.847656 53.546875 -31.953125 C 53.835938 -31.054688 54.050781 -30.003906 54.1875 -28.796875 C 53.445312 -27.367188 52.753906 -25.910156 52.109375 -24.421875 C 51.460938 -22.941406 50.820312 -21.441406 50.1875 -19.921875 C 49.375 -17.960938 48.535156 -16.007812 47.671875 -14.0625 C 46.804688 -12.125 45.847656 -10.273438 44.796875 -8.515625 C 43.753906 -6.753906 42.582031 -5.140625 41.28125 -3.671875 C 39.976562 -2.203125 38.484375 -0.960938 36.796875 0.046875 C 36.328125 -0.046875 35.921875 -0.09375 35.578125 -0.09375 C 35.210938 -0.09375 34.898438 -0.046875 34.640625 0.046875 C 34.390625 0.148438 34.164062 0.285156 33.96875 0.453125 C 32.582031 -0.179688 31.460938 -1.132812 30.609375 -2.40625 C 29.765625 -3.675781 28.9375 -5.085938 28.125 -6.640625 C 28.03125 -6.878906 27.921875 -7.109375 27.796875 -7.328125 C 27.679688 -7.546875 27.554688 -7.773438 27.421875 -8.015625 L 26.5625 -9.578125 L 26.046875 -10.546875 L 25.34375 -9.890625 L 24.28125 -8.921875 L 23.671875 -8.3125 C 22.617188 -7.332031 21.550781 -6.378906 20.46875 -5.453125 C 19.394531 -4.523438 18.265625 -3.679688 17.078125 -2.921875 C 15.898438 -2.160156 14.640625 -1.539062 13.296875 -1.0625 C 11.960938 -0.59375 10.535156 -0.335938 9.015625 -0.296875 C 8.753906 -0.429688 8.507812 -0.550781 8.28125 -0.65625 C 8.0625 -0.757812 7.851562 -0.863281 7.65625 -0.96875 C 6.875 -1.332031 6.226562 -1.679688 5.71875 -2.015625 C 5.21875 -2.359375 4.628906 -2.882812 3.953125 -3.59375 Z M 3.953125 -3.59375 "/></g></g></g><g fill="#7ca5b8" fill-opacity="1"><g transform="translate(295.760873, 281.838177)"><g><path d="M 25.953125 -4.921875 C 26.015625 -4.035156 25.910156 -3.304688 25.640625 -2.734375 C 25.378906 -2.160156 25.007812 -1.671875 24.53125 -1.265625 C 24.0625 -0.859375 23.519531 -0.535156 22.90625 -0.296875 C 22.300781 -0.0664062 21.710938 0.148438 21.140625 0.359375 C 20.867188 0.179688 20.601562 0.00390625 20.34375 -0.171875 C 20.09375 -0.359375 19.800781 -0.503906 19.46875 -0.609375 C 19.03125 -1.421875 18.609375 -2.140625 18.203125 -2.765625 C 17.796875 -3.390625 17.609375 -4.109375 17.640625 -4.921875 C 17.640625 -4.953125 17.664062 -5.132812 17.71875 -5.46875 C 17.769531 -5.8125 17.835938 -6.1875 17.921875 -6.59375 C 18.003906 -7 18.070312 -7.378906 18.125 -7.734375 C 18.175781 -8.085938 18.203125 -8.28125 18.203125 -8.3125 C 17.421875 -8.25 16.609375 -8.082031 15.765625 -7.8125 C 14.921875 -7.539062 14.097656 -7.21875 13.296875 -6.84375 C 12.503906 -6.46875 11.757812 -6.09375 11.0625 -5.71875 C 10.375 -5.351562 9.8125 -5.035156 9.375 -4.765625 C 9.375 -4.660156 9.304688 -4.414062 9.171875 -4.03125 C 9.035156 -3.644531 8.863281 -3.238281 8.65625 -2.8125 C 8.457031 -2.382812 8.238281 -2.003906 8 -1.671875 C 7.769531 -1.335938 7.535156 -1.171875 7.296875 -1.171875 C 7.328125 -1.066406 7.375 -0.960938 7.4375 -0.859375 C 7.507812 -0.753906 7.515625 -0.617188 7.453125 -0.453125 C 6.972656 -0.316406 6.546875 -0.140625 6.171875 0.078125 C 5.804688 0.296875 5.421875 0.476562 5.015625 0.625 C 4.609375 0.78125 4.164062 0.859375 3.6875 0.859375 C 3.21875 0.859375 2.664062 0.691406 2.03125 0.359375 C 2.03125 0.148438 1.941406 -0.0234375 1.765625 -0.171875 C 1.597656 -0.328125 1.421875 -0.460938 1.234375 -0.578125 C 1.054688 -0.703125 0.898438 -0.804688 0.765625 -0.890625 C 0.628906 -0.972656 0.5625 -1.046875 0.5625 -1.109375 C 0.382812 -1.078125 0.3125 -1.195312 0.34375 -1.46875 C 0.382812 -1.738281 0.523438 -1.804688 0.765625 -1.671875 C 0.390625 -2.140625 0.160156 -2.550781 0.078125 -2.90625 C -0.00390625 -3.269531 -0.195312 -3.722656 -0.5 -4.265625 C -0.4375 -4.328125 -0.378906 -4.441406 -0.328125 -4.609375 C -0.273438 -4.773438 -0.234375 -4.925781 -0.203125 -5.0625 C -0.171875 -5.195312 -0.117188 -5.296875 -0.046875 -5.359375 C 0.015625 -5.429688 0.0976562 -5.421875 0.203125 -5.328125 C 0.128906 -5.628906 0.125 -5.878906 0.1875 -6.078125 C 0.257812 -6.285156 0.328125 -6.472656 0.390625 -6.640625 C 0.460938 -6.804688 0.515625 -6.972656 0.546875 -7.140625 C 0.585938 -7.316406 0.539062 -7.503906 0.40625 -7.703125 C 0.945312 -8.441406 1.300781 -9.242188 1.46875 -10.109375 C 1.632812 -10.972656 1.738281 -11.757812 1.78125 -12.46875 C 2.007812 -12.707031 2.21875 -13.046875 2.40625 -13.484375 C 2.59375 -13.921875 2.734375 -14.367188 2.828125 -14.828125 C 2.929688 -15.285156 2.972656 -15.722656 2.953125 -16.140625 C 2.941406 -16.566406 2.882812 -16.914062 2.78125 -17.1875 C 2.820312 -17.351562 3.007812 -17.398438 3.34375 -17.328125 C 3.550781 -18.453125 3.695312 -19.710938 3.78125 -21.109375 C 3.863281 -22.515625 4.003906 -23.847656 4.203125 -25.109375 C 4.410156 -26.378906 4.75 -27.492188 5.21875 -28.453125 C 5.695312 -29.421875 6.457031 -30.054688 7.5 -30.359375 C 7.707031 -29.648438 7.96875 -29.023438 8.28125 -28.484375 C 8.601562 -27.941406 8.957031 -27.425781 9.34375 -26.9375 C 9.738281 -26.445312 10.128906 -25.945312 10.515625 -25.4375 C 10.898438 -24.9375 11.265625 -24.363281 11.609375 -23.71875 C 11.578125 -23.082031 11.507812 -22.335938 11.40625 -21.484375 C 11.300781 -20.640625 11.171875 -19.78125 11.015625 -18.90625 C 10.867188 -18.03125 10.71875 -17.1875 10.5625 -16.375 C 10.414062 -15.5625 10.273438 -14.867188 10.140625 -14.296875 C 10.171875 -14.128906 10.257812 -14.023438 10.40625 -13.984375 C 10.5625 -13.953125 10.59375 -13.800781 10.5 -13.53125 C 11.300781 -13.738281 12.140625 -13.925781 13.015625 -14.09375 C 13.898438 -14.257812 14.78125 -14.441406 15.65625 -14.640625 C 16.539062 -14.847656 17.394531 -15.078125 18.21875 -15.328125 C 19.050781 -15.585938 19.820312 -15.898438 20.53125 -16.265625 C 20.695312 -17.585938 20.914062 -18.90625 21.1875 -20.21875 C 21.457031 -21.539062 21.492188 -22.894531 21.296875 -24.28125 C 21.460938 -24.414062 21.59375 -24.582031 21.6875 -24.78125 C 21.789062 -24.988281 21.960938 -25.125 22.203125 -25.1875 C 22.035156 -25.832031 21.96875 -26.507812 22 -27.21875 C 22.03125 -27.925781 22.15625 -28.601562 22.375 -29.25 C 22.59375 -29.894531 22.910156 -30.441406 23.328125 -30.890625 C 23.753906 -31.347656 24.273438 -31.644531 24.890625 -31.78125 C 25.265625 -31.238281 25.582031 -30.65625 25.84375 -30.03125 C 26.113281 -29.40625 26.394531 -28.78125 26.6875 -28.15625 C 26.976562 -27.53125 27.28125 -26.9375 27.59375 -26.375 C 27.914062 -25.820312 28.332031 -25.34375 28.84375 -24.9375 C 28.945312 -23.957031 29.019531 -22.941406 29.0625 -21.890625 C 29.113281 -20.847656 29.160156 -19.785156 29.203125 -18.703125 C 28.929688 -17.421875 28.632812 -16.175781 28.3125 -14.96875 C 27.988281 -13.769531 27.757812 -12.5 27.625 -11.15625 C 27.382812 -10.882812 27.195312 -10.578125 27.0625 -10.234375 C 26.925781 -9.898438 26.789062 -9.554688 26.65625 -9.203125 C 26.519531 -8.847656 26.367188 -8.507812 26.203125 -8.1875 C 26.035156 -7.863281 25.832031 -7.582031 25.59375 -7.34375 C 25.726562 -6.9375 25.753906 -6.554688 25.671875 -6.203125 C 25.585938 -5.847656 25.679688 -5.421875 25.953125 -4.921875 Z M 25.953125 -4.921875 "/></g></g></g><g fill="#7ca5b8" fill-opacity="1"><g transform="translate(325.966688, 281.838177)"><g><path d="M 28.28125 -28.53125 C 28.3125 -28.300781 28.316406 -28.125 28.296875 -28 C 28.285156 -27.882812 28.269531 -27.773438 28.25 -27.671875 C 28.238281 -27.578125 28.234375 -27.46875 28.234375 -27.34375 C 28.234375 -27.226562 28.265625 -27.050781 28.328125 -26.8125 C 27.617188 -25.664062 26.800781 -24.878906 25.875 -24.453125 C 24.945312 -24.035156 23.941406 -23.734375 22.859375 -23.546875 C 21.773438 -23.359375 20.664062 -23.160156 19.53125 -22.953125 C 18.40625 -22.753906 17.285156 -22.316406 16.171875 -21.640625 C 15.734375 -21.804688 15.335938 -21.804688 14.984375 -21.640625 C 14.628906 -21.472656 14.113281 -21.425781 13.4375 -21.5 C 13.226562 -21.289062 12.972656 -21.144531 12.671875 -21.0625 C 12.367188 -20.976562 12.066406 -20.882812 11.765625 -20.78125 C 11.898438 -20.476562 11.957031 -20.164062 11.9375 -19.84375 C 11.914062 -19.519531 11.957031 -19.257812 12.0625 -19.0625 C 13.25 -18.957031 14.554688 -18.972656 15.984375 -19.109375 C 17.421875 -19.242188 18.832031 -19.328125 20.21875 -19.359375 C 20.257812 -19.191406 20.242188 -19.082031 20.171875 -19.03125 C 20.109375 -18.976562 20.09375 -18.882812 20.125 -18.75 C 20.363281 -18.582031 20.597656 -18.367188 20.828125 -18.109375 C 21.066406 -17.859375 21.300781 -17.613281 21.53125 -17.375 C 21.769531 -17.144531 22.015625 -16.953125 22.265625 -16.796875 C 22.523438 -16.648438 22.828125 -16.59375 23.171875 -16.625 C 23.304688 -16.351562 23.394531 -16.054688 23.4375 -15.734375 C 23.488281 -15.410156 23.445312 -15.082031 23.3125 -14.75 C 22.769531 -14.375 22.226562 -13.992188 21.6875 -13.609375 C 21.15625 -13.222656 20.59375 -12.875 20 -12.5625 C 19.40625 -12.257812 18.78125 -12.015625 18.125 -11.828125 C 17.46875 -11.648438 16.734375 -11.578125 15.921875 -11.609375 C 15.742188 -11.609375 15.613281 -11.609375 15.53125 -11.609375 C 15.445312 -11.609375 15.335938 -11.660156 15.203125 -11.765625 C 14.929688 -11.585938 14.550781 -11.53125 14.0625 -11.59375 C 13.570312 -11.664062 13.191406 -11.617188 12.921875 -11.453125 C 12.554688 -11.617188 12.109375 -11.691406 11.578125 -11.671875 C 11.054688 -11.660156 10.59375 -11.722656 10.1875 -11.859375 C 9.644531 -11.148438 9.15625 -10.390625 8.71875 -9.578125 C 8.28125 -8.765625 7.890625 -7.90625 7.546875 -7 C 8.703125 -6.820312 9.660156 -6.75 10.421875 -6.78125 C 11.179688 -6.820312 11.894531 -6.882812 12.5625 -6.96875 C 13.238281 -7.050781 13.929688 -7.132812 14.640625 -7.21875 C 15.359375 -7.300781 16.253906 -7.328125 17.328125 -7.296875 C 18.003906 -7.671875 18.804688 -7.914062 19.734375 -8.03125 C 20.671875 -8.15625 21.523438 -8.351562 22.296875 -8.625 C 22.566406 -8.519531 22.800781 -8.335938 23 -8.078125 C 23.207031 -7.828125 23.40625 -7.59375 23.59375 -7.375 C 23.78125 -7.15625 23.972656 -6.957031 24.171875 -6.78125 C 24.378906 -6.613281 24.632812 -6.550781 24.9375 -6.59375 C 25.070312 -6.457031 25.164062 -6.296875 25.21875 -6.109375 C 25.269531 -5.921875 25.3125 -5.742188 25.34375 -5.578125 C 25.375 -5.410156 25.429688 -5.265625 25.515625 -5.140625 C 25.609375 -5.023438 25.753906 -4.984375 25.953125 -5.015625 C 25.441406 -3.898438 24.859375 -3.046875 24.203125 -2.453125 C 23.546875 -1.867188 22.796875 -1.421875 21.953125 -1.109375 C 21.109375 -0.804688 20.171875 -0.570312 19.140625 -0.40625 C 18.109375 -0.238281 16.96875 -0.0351562 15.71875 0.203125 C 15.40625 0.265625 15.148438 0.253906 14.953125 0.171875 C 14.753906 0.0859375 14.519531 0.046875 14.25 0.046875 C 13.46875 0.210938 12.535156 0.363281 11.453125 0.5 C 10.367188 0.632812 9.269531 0.6875 8.15625 0.65625 C 7.039062 0.625 5.976562 0.476562 4.96875 0.21875 C 3.957031 -0.03125 3.128906 -0.472656 2.484375 -1.109375 C 2.210938 -1.347656 2.035156 -1.628906 1.953125 -1.953125 C 1.867188 -2.273438 1.640625 -2.519531 1.265625 -2.6875 C 1.234375 -3.125 1.164062 -3.613281 1.0625 -4.15625 C 0.957031 -4.695312 0.851562 -5.257812 0.75 -5.84375 C 0.65625 -6.4375 0.582031 -7.019531 0.53125 -7.59375 C 0.476562 -8.175781 0.503906 -8.703125 0.609375 -9.171875 C 0.710938 -9.679688 0.921875 -10.140625 1.234375 -10.546875 C 1.554688 -10.953125 1.671875 -11.390625 1.578125 -11.859375 C 1.742188 -11.890625 1.84375 -11.984375 1.875 -12.140625 C 1.90625 -12.296875 2.039062 -12.351562 2.28125 -12.3125 C 2.476562 -12.925781 2.695312 -13.503906 2.9375 -14.046875 C 3.175781 -14.585938 3.421875 -15.109375 3.671875 -15.609375 C 3.929688 -16.117188 4.1875 -16.632812 4.4375 -17.15625 C 4.6875 -17.675781 4.929688 -18.257812 5.171875 -18.90625 C 4.691406 -19.34375 4.34375 -19.820312 4.125 -20.34375 C 3.90625 -20.875 3.742188 -21.398438 3.640625 -21.921875 C 3.546875 -22.441406 3.460938 -22.976562 3.390625 -23.53125 C 3.328125 -24.09375 3.210938 -24.664062 3.046875 -25.25 C 3.378906 -25.75 3.789062 -26.160156 4.28125 -26.484375 C 4.769531 -26.804688 5.300781 -27.066406 5.875 -27.265625 C 6.445312 -27.472656 7.070312 -27.644531 7.75 -27.78125 C 8.425781 -27.914062 9.140625 -28.066406 9.890625 -28.234375 C 11.234375 -28.671875 12.4375 -29.007812 13.5 -29.25 C 14.570312 -29.488281 15.625 -29.679688 16.65625 -29.828125 C 17.6875 -29.984375 18.757812 -30.128906 19.875 -30.265625 C 20.988281 -30.398438 22.253906 -30.601562 23.671875 -30.875 C 23.972656 -30.5625 24.257812 -30.40625 24.53125 -30.40625 C 24.664062 -30.71875 24.828125 -30.8125 25.015625 -30.6875 C 25.203125 -30.570312 25.28125 -30.664062 25.25 -30.96875 C 25.582031 -30.394531 26.007812 -29.910156 26.53125 -29.515625 C 27.0625 -29.128906 27.644531 -28.800781 28.28125 -28.53125 Z M 28.28125 -28.53125 "/></g></g></g><g fill="#7ca5b8" fill-opacity="1"><g transform="translate(353.030288, 281.838177)"><g><path d="M 10.390625 -9.21875 C 10.085938 -9.15625 9.867188 -8.976562 9.734375 -8.6875 C 9.597656 -8.40625 9.46875 -8.109375 9.34375 -7.796875 C 9.226562 -7.492188 9.109375 -7.21875 8.984375 -6.96875 C 8.867188 -6.71875 8.695312 -6.59375 8.46875 -6.59375 C 8.4375 -6.320312 8.34375 -6.082031 8.1875 -5.875 C 8.03125 -5.675781 7.882812 -5.46875 7.75 -5.25 C 7.613281 -5.03125 7.507812 -4.789062 7.4375 -4.53125 C 7.375 -4.28125 7.410156 -3.988281 7.546875 -3.65625 C 7.273438 -3.445312 7.101562 -3.15625 7.03125 -2.78125 C 6.96875 -2.414062 6.894531 -2.0625 6.8125 -1.71875 C 6.726562 -1.382812 6.582031 -1.097656 6.375 -0.859375 C 6.175781 -0.617188 5.804688 -0.519531 5.265625 -0.5625 C 5.171875 -0.425781 5.15625 -0.335938 5.21875 -0.296875 C 5.289062 -0.265625 5.34375 -0.148438 5.375 0.046875 C 5 -0.015625 4.71875 0.0078125 4.53125 0.125 C 4.351562 0.238281 4.128906 0.316406 3.859375 0.359375 C 3.210938 0.148438 2.675781 -0.203125 2.25 -0.703125 C 1.832031 -1.210938 1.460938 -1.78125 1.140625 -2.40625 C 0.816406 -3.03125 0.53125 -3.660156 0.28125 -4.296875 C 0.03125 -4.941406 -0.210938 -5.503906 -0.453125 -5.984375 C -0.347656 -6.347656 -0.328125 -6.707031 -0.390625 -7.0625 C -0.460938 -7.425781 -0.585938 -7.722656 -0.765625 -7.953125 C 0.890625 -11.472656 2.695312 -15.222656 4.65625 -19.203125 C 6.625 -23.191406 8.484375 -27.128906 10.234375 -31.015625 C 11.015625 -30.710938 11.785156 -30.367188 12.546875 -29.984375 C 13.304688 -29.597656 14 -29.148438 14.625 -28.640625 C 15.25 -28.128906 15.78125 -27.546875 16.21875 -26.890625 C 16.65625 -26.234375 16.941406 -25.5 17.078125 -24.6875 C 17.015625 -24.476562 16.941406 -24.398438 16.859375 -24.453125 C 16.773438 -24.503906 16.695312 -24.476562 16.625 -24.375 C 16.757812 -24.207031 16.832031 -24.085938 16.84375 -24.015625 C 16.863281 -23.953125 16.863281 -23.882812 16.84375 -23.8125 C 16.832031 -23.75 16.828125 -23.660156 16.828125 -23.546875 C 16.828125 -23.429688 16.878906 -23.269531 16.984375 -23.0625 C 16.847656 -23.09375 16.753906 -23.070312 16.703125 -23 C 16.648438 -22.9375 16.539062 -22.941406 16.375 -23.015625 C 16.507812 -22.640625 16.550781 -22.332031 16.5 -22.09375 C 16.445312 -21.863281 16.367188 -21.65625 16.265625 -21.46875 C 16.171875 -21.28125 16.085938 -21.078125 16.015625 -20.859375 C 15.953125 -20.640625 15.96875 -20.359375 16.0625 -20.015625 C 15.96875 -20.015625 15.894531 -19.988281 15.84375 -19.9375 C 15.789062 -19.894531 15.742188 -19.847656 15.703125 -19.796875 C 15.671875 -19.742188 15.628906 -19.691406 15.578125 -19.640625 C 15.535156 -19.585938 15.460938 -19.578125 15.359375 -19.609375 C 15.460938 -18.867188 15.492188 -18.125 15.453125 -17.375 C 15.421875 -16.632812 15.394531 -15.882812 15.375 -15.125 C 15.363281 -14.363281 15.375 -13.566406 15.40625 -12.734375 C 15.4375 -11.910156 15.554688 -11.0625 15.765625 -10.1875 C 16.984375 -10.894531 17.953125 -11.804688 18.671875 -12.921875 C 19.398438 -14.035156 19.992188 -15.285156 20.453125 -16.671875 C 20.910156 -18.054688 21.253906 -19.539062 21.484375 -21.125 C 21.722656 -22.71875 21.976562 -24.34375 22.25 -26 C 22.550781 -26.300781 22.785156 -26.671875 22.953125 -27.109375 C 23.128906 -27.554688 23.285156 -28.023438 23.421875 -28.515625 C 23.554688 -29.003906 23.691406 -29.492188 23.828125 -29.984375 C 23.960938 -30.472656 24.128906 -30.921875 24.328125 -31.328125 C 24.835938 -31.253906 25.269531 -31.09375 25.625 -30.84375 C 25.976562 -30.59375 26.304688 -30.320312 26.609375 -30.03125 C 26.910156 -29.75 27.226562 -29.476562 27.5625 -29.21875 C 27.90625 -28.96875 28.332031 -28.804688 28.84375 -28.734375 C 29.25 -28.160156 29.617188 -27.601562 29.953125 -27.0625 C 30.296875 -26.519531 30.515625 -25.945312 30.609375 -25.34375 C 30.441406 -25.070312 30.316406 -24.765625 30.234375 -24.421875 C 30.148438 -24.085938 30.054688 -23.75 29.953125 -23.40625 C 29.859375 -23.070312 29.722656 -22.757812 29.546875 -22.46875 C 29.378906 -22.1875 29.144531 -21.945312 28.84375 -21.75 C 28.738281 -20.863281 28.609375 -20.054688 28.453125 -19.328125 C 28.304688 -18.609375 28.15625 -17.894531 28 -17.1875 C 27.851562 -16.476562 27.726562 -15.742188 27.625 -14.984375 C 27.519531 -14.222656 27.488281 -13.382812 27.53125 -12.46875 C 27.257812 -11.6875 26.96875 -10.859375 26.65625 -9.984375 C 26.351562 -9.109375 26.117188 -8.316406 25.953125 -7.609375 C 25.410156 -7.160156 24.988281 -6.632812 24.6875 -6.03125 C 24.382812 -5.425781 24.0625 -4.816406 23.71875 -4.203125 C 23.582031 -4.066406 23.5 -4.03125 23.46875 -4.09375 C 23.4375 -4.164062 23.316406 -4.222656 23.109375 -4.265625 C 23.148438 -4.128906 23.148438 -4.023438 23.109375 -3.953125 C 23.078125 -3.890625 23.035156 -3.832031 22.984375 -3.78125 C 22.929688 -3.726562 22.894531 -3.648438 22.875 -3.546875 C 22.863281 -3.441406 22.894531 -3.304688 22.96875 -3.140625 C 22.488281 -2.941406 22.0625 -2.65625 21.6875 -2.28125 C 21.320312 -1.90625 20.925781 -1.566406 20.5 -1.265625 C 20.082031 -0.960938 19.578125 -0.757812 18.984375 -0.65625 C 18.390625 -0.550781 17.617188 -0.671875 16.671875 -1.015625 C 15.285156 -2.023438 14.0625 -3.1875 13 -4.5 C 11.9375 -5.820312 11.066406 -7.394531 10.390625 -9.21875 Z M 10.390625 -9.21875 "/></g></g></g><g fill="#7ca5b8" fill-opacity="1"><g transform="translate(382.323848, 281.838177)"><g/></g></g><g fill="#7ca5b8" fill-opacity="1"><g transform="translate(401.531909, 281.838177)"><g><path d="M 4.96875 0.5625 C 3.988281 0.320312 3.234375 -0.0703125 2.703125 -0.625 C 2.179688 -1.1875 1.796875 -1.847656 1.546875 -2.609375 C 1.296875 -3.367188 1.125 -4.203125 1.03125 -5.109375 C 0.945312 -6.023438 0.859375 -6.972656 0.765625 -7.953125 C 0.898438 -8.398438 1.078125 -8.773438 1.296875 -9.078125 C 1.515625 -9.378906 1.609375 -9.800781 1.578125 -10.34375 C 1.941406 -11.425781 2.273438 -12.472656 2.578125 -13.484375 C 2.890625 -14.492188 3.09375 -15.539062 3.1875 -16.625 C 3.394531 -16.925781 3.597656 -17.128906 3.796875 -17.234375 C 4.066406 -19.160156 4.097656 -21.132812 3.890625 -23.15625 C 3.691406 -25.1875 3.359375 -27.066406 2.890625 -28.796875 C 2.921875 -29.160156 2.96875 -29.4375 3.03125 -29.625 C 3.101562 -29.8125 3.109375 -29.972656 3.046875 -30.109375 C 2.972656 -30.410156 3.070312 -30.5625 3.34375 -30.5625 C 3.613281 -30.5625 3.882812 -30.5625 4.15625 -30.5625 C 4.15625 -31.175781 4.046875 -31.773438 3.828125 -32.359375 C 3.609375 -32.953125 3.394531 -33.640625 3.1875 -34.421875 C 3.457031 -35.023438 3.644531 -35.613281 3.75 -36.1875 C 3.851562 -36.757812 4.039062 -37.285156 4.3125 -37.765625 C 5.394531 -37.421875 6.457031 -37.03125 7.5 -36.59375 C 8.550781 -36.15625 9.582031 -35.722656 10.59375 -35.296875 C 11.601562 -34.878906 12.597656 -34.472656 13.578125 -34.078125 C 14.566406 -33.691406 15.53125 -33.382812 16.46875 -33.15625 C 17.925781 -32.101562 19.421875 -31.0625 20.953125 -30.03125 C 22.492188 -29 23.894531 -27.863281 25.15625 -26.625 C 26.425781 -25.394531 27.484375 -23.984375 28.328125 -22.390625 C 29.179688 -20.804688 29.675781 -18.9375 29.8125 -16.78125 C 29.738281 -16.570312 29.6875 -16.398438 29.65625 -16.265625 C 29.625 -16.128906 29.585938 -15.992188 29.546875 -15.859375 C 29.515625 -15.722656 29.5 -15.570312 29.5 -15.40625 C 29.5 -15.238281 29.5 -15.003906 29.5 -14.703125 C 28.28125 -12.566406 26.738281 -10.769531 24.875 -9.3125 C 23.019531 -7.863281 20.992188 -6.582031 18.796875 -5.46875 C 16.609375 -4.351562 14.320312 -3.332031 11.9375 -2.40625 C 9.550781 -1.476562 7.226562 -0.488281 4.96875 0.5625 Z M 9.9375 -28.1875 C 9.632812 -28.1875 9.414062 -28.117188 9.28125 -27.984375 C 9.6875 -26.460938 9.988281 -25.023438 10.1875 -23.671875 C 10.394531 -22.316406 10.503906 -20.960938 10.515625 -19.609375 C 10.535156 -18.265625 10.457031 -16.878906 10.28125 -15.453125 C 10.113281 -14.035156 9.878906 -12.5 9.578125 -10.84375 C 10.015625 -10.875 10.398438 -10.957031 10.734375 -11.09375 C 11.078125 -11.226562 11.425781 -11.378906 11.78125 -11.546875 C 12.132812 -11.722656 12.503906 -11.878906 12.890625 -12.015625 C 13.285156 -12.148438 13.738281 -12.234375 14.25 -12.265625 C 14.382812 -12.535156 14.5625 -12.742188 14.78125 -12.890625 C 15 -13.046875 15.191406 -13.207031 15.359375 -13.375 C 16.203125 -13.71875 17.046875 -14.070312 17.890625 -14.4375 C 18.734375 -14.8125 19.507812 -15.234375 20.21875 -15.703125 C 20.9375 -16.179688 21.582031 -16.722656 22.15625 -17.328125 C 22.726562 -17.941406 23.203125 -18.671875 23.578125 -19.515625 C 23.304688 -20.023438 22.972656 -20.457031 22.578125 -20.8125 C 22.191406 -21.164062 21.785156 -21.519531 21.359375 -21.875 C 20.941406 -22.226562 20.535156 -22.597656 20.140625 -22.984375 C 19.753906 -23.378906 19.445312 -23.828125 19.21875 -24.328125 C 18.675781 -24.398438 18.203125 -24.546875 17.796875 -24.765625 C 17.390625 -24.984375 17 -25.203125 16.625 -25.421875 C 16.25 -25.640625 15.847656 -25.847656 15.421875 -26.046875 C 15.003906 -26.253906 14.507812 -26.375 13.9375 -26.40625 C 13.0625 -26.882812 12.269531 -27.210938 11.5625 -27.390625 C 10.851562 -27.578125 10.3125 -27.84375 9.9375 -28.1875 Z M 9.9375 -28.1875 "/></g></g></g><g fill="#7ca5b8" fill-opacity="1"><g transform="translate(427.429722, 281.838177)"><g><path d="M 0.859375 0.609375 C 0.390625 0.304688 0.015625 -0.078125 -0.265625 -0.546875 C -0.554688 -1.023438 -0.796875 -1.535156 -0.984375 -2.078125 C -1.171875 -2.617188 -1.320312 -3.179688 -1.4375 -3.765625 C -1.5625 -4.359375 -1.691406 -4.925781 -1.828125 -5.46875 C -1.828125 -5.945312 -1.722656 -6.296875 -1.515625 -6.515625 C -1.316406 -6.734375 -1.097656 -6.941406 -0.859375 -7.140625 C -0.046875 -7.179688 0.675781 -7.25 1.3125 -7.34375 C 1.957031 -7.445312 2.582031 -7.550781 3.1875 -7.65625 C 3.800781 -7.757812 4.410156 -7.851562 5.015625 -7.9375 C 5.628906 -8.019531 6.289062 -8.0625 7 -8.0625 C 7.5 -9.101562 7.96875 -10.101562 8.40625 -11.0625 C 8.851562 -12.03125 9.28125 -12.957031 9.6875 -13.84375 C 9.882812 -14.6875 10.144531 -15.46875 10.46875 -16.1875 C 10.789062 -16.914062 11.101562 -17.609375 11.40625 -18.265625 C 11.707031 -18.929688 11.976562 -19.59375 12.21875 -20.25 C 12.457031 -20.90625 12.609375 -21.609375 12.671875 -22.359375 C 13.078125 -23.535156 13.441406 -24.625 13.765625 -25.625 C 14.085938 -26.625 14.332031 -27.816406 14.5 -29.203125 C 13.21875 -28.992188 12.1875 -28.796875 11.40625 -28.609375 C 10.625 -28.421875 10.066406 -28.242188 9.734375 -28.078125 C 9.054688 -28.109375 8.519531 -28.242188 8.125 -28.484375 C 7.738281 -28.722656 7.425781 -29.007812 7.1875 -29.34375 C 6.957031 -29.6875 6.757812 -30.078125 6.59375 -30.515625 C 6.425781 -30.953125 6.222656 -31.410156 5.984375 -31.890625 C 6.117188 -32.191406 6.148438 -32.632812 6.078125 -33.21875 C 6.015625 -33.8125 5.8125 -34.242188 5.46875 -34.515625 C 5.738281 -34.585938 5.941406 -34.816406 6.078125 -35.203125 C 6.210938 -35.585938 6.234375 -35.882812 6.140625 -36.09375 C 6.710938 -36.257812 7.316406 -36.367188 7.953125 -36.421875 C 8.597656 -36.472656 9.234375 -36.523438 9.859375 -36.578125 C 10.484375 -36.628906 11.082031 -36.695312 11.65625 -36.78125 C 12.226562 -36.863281 12.71875 -37.039062 13.125 -37.3125 C 14.882812 -37.375 16.71875 -37.4375 18.625 -37.5 C 20.539062 -37.570312 22.304688 -37.660156 23.921875 -37.765625 C 24.535156 -37.554688 25.238281 -37.453125 26.03125 -37.453125 C 26.820312 -37.453125 27.613281 -37.398438 28.40625 -37.296875 C 29.207031 -37.203125 29.921875 -36.984375 30.546875 -36.640625 C 31.171875 -36.304688 31.597656 -35.71875 31.828125 -34.875 C 32.335938 -34.800781 32.71875 -34.664062 32.96875 -34.46875 C 33.226562 -34.269531 33.390625 -34.023438 33.453125 -33.734375 C 33.523438 -33.441406 33.550781 -33.117188 33.53125 -32.765625 C 33.507812 -32.410156 33.5 -32.066406 33.5 -31.734375 C 32.957031 -31.328125 32.273438 -30.992188 31.453125 -30.734375 C 30.628906 -30.484375 29.722656 -30.28125 28.734375 -30.125 C 27.753906 -29.976562 26.734375 -29.878906 25.671875 -29.828125 C 24.609375 -29.773438 23.570312 -29.734375 22.5625 -29.703125 C 22.382812 -28.585938 22.082031 -27.273438 21.65625 -25.765625 C 21.238281 -24.265625 20.8125 -22.796875 20.375 -21.359375 C 19.9375 -19.929688 19.554688 -18.648438 19.234375 -17.515625 C 18.910156 -16.378906 18.769531 -15.644531 18.8125 -15.3125 C 18.46875 -14.53125 18.1875 -13.867188 17.96875 -13.328125 C 17.75 -12.785156 17.546875 -12.273438 17.359375 -11.796875 C 17.171875 -11.328125 16.984375 -10.863281 16.796875 -10.40625 C 16.617188 -9.957031 16.394531 -9.445312 16.125 -8.875 L 19.5625 -8.875 C 19.632812 -8.5 19.785156 -8.242188 20.015625 -8.109375 C 20.253906 -7.972656 20.507812 -7.851562 20.78125 -7.75 C 21.050781 -7.65625 21.296875 -7.53125 21.515625 -7.375 C 21.734375 -7.21875 21.84375 -6.972656 21.84375 -6.640625 C 22.488281 -6.472656 22.894531 -6.21875 23.0625 -5.875 C 23.226562 -5.539062 23.269531 -5.175781 23.1875 -4.78125 C 23.101562 -4.394531 22.929688 -4 22.671875 -3.59375 C 22.421875 -3.1875 22.179688 -2.832031 21.953125 -2.53125 C 21.648438 -2.601562 21.363281 -2.53125 21.09375 -2.3125 C 20.820312 -2.09375 20.566406 -1.847656 20.328125 -1.578125 C 19.347656 -1.710938 18.382812 -1.726562 17.4375 -1.625 C 16.488281 -1.519531 15.609375 -1.4375 14.796875 -1.375 C 14.628906 -1.332031 14.5625 -1.234375 14.59375 -1.078125 C 14.632812 -0.929688 14.601562 -0.828125 14.5 -0.765625 C 13.445312 -1.097656 12.367188 -1.226562 11.265625 -1.15625 C 10.171875 -1.09375 9.054688 -0.929688 7.921875 -0.671875 C 6.796875 -0.421875 5.640625 -0.15625 4.453125 0.125 C 3.273438 0.414062 2.078125 0.578125 0.859375 0.609375 Z M 0.859375 0.609375 "/></g></g></g><g fill="#7ca5b8" fill-opacity="1"><g transform="translate(454.189225, 281.838177)"><g><path d="M 7.546875 1.671875 C 4.578125 1.265625 2.769531 -0.304688 2.125 -3.046875 L 2.171875 -3.59375 C 2.304688 -4 2.460938 -4.457031 2.640625 -4.96875 C 2.804688 -5.539062 2.988281 -6.101562 3.1875 -6.65625 C 3.394531 -7.21875 3.734375 -7.71875 4.203125 -8.15625 C 4.304688 -8.46875 4.5 -8.9375 4.78125 -9.5625 C 5.070312 -10.1875 5.554688 -11.125 6.234375 -12.375 C 6.773438 -13.351562 7.207031 -14.128906 7.53125 -14.703125 C 7.851562 -15.273438 8.113281 -15.710938 8.3125 -16.015625 C 7.976562 -16.628906 7.503906 -17.222656 6.890625 -17.796875 C 6.347656 -18.804688 5.882812 -19.773438 5.5 -20.703125 C 5.113281 -21.628906 4.816406 -22.46875 4.609375 -23.21875 C 4.578125 -24.03125 4.441406 -24.859375 4.203125 -25.703125 C 4.109375 -26.140625 4.007812 -26.578125 3.90625 -27.015625 C 3.800781 -27.453125 3.75 -27.910156 3.75 -28.390625 C 3.613281 -28.617188 3.492188 -28.921875 3.390625 -29.296875 L 3.5 -29.90625 C 3.664062 -30.175781 3.707031 -30.539062 3.625 -31 C 3.539062 -31.457031 3.429688 -31.921875 3.296875 -32.390625 C 3.191406 -32.828125 3.097656 -33.289062 3.015625 -33.78125 C 2.929688 -34.269531 2.90625 -34.75 2.9375 -35.21875 C 2.96875 -35.695312 3.09375 -36.15625 3.3125 -36.59375 C 3.539062 -37.03125 3.921875 -37.40625 4.453125 -37.71875 L 4.96875 -38.0625 L 5.46875 -37.765625 C 5.84375 -37.523438 6.195312 -37.320312 6.53125 -37.15625 C 6.875 -36.988281 7.210938 -36.820312 7.546875 -36.65625 C 7.953125 -36.445312 8.359375 -36.234375 8.765625 -36.015625 C 9.171875 -35.796875 9.613281 -35.550781 10.09375 -35.28125 L 10.59375 -34.921875 L 10.546875 -34.375 C 10.546875 -34.300781 10.5625 -34.210938 10.59375 -34.109375 C 10.625 -34.015625 10.675781 -33.929688 10.75 -33.859375 L 11.296875 -33.703125 L 11.359375 -33 L 11.359375 -32.390625 C 11.359375 -32.085938 11.375 -31.875 11.40625 -31.75 C 11.4375 -31.632812 11.503906 -31.507812 11.609375 -31.375 L 11.859375 -30.71875 C 11.859375 -30.113281 11.910156 -29.570312 12.015625 -29.09375 C 12.117188 -28.625 12.238281 -28.148438 12.375 -27.671875 C 12.539062 -27.203125 12.671875 -26.722656 12.765625 -26.234375 C 12.867188 -25.742188 12.890625 -25.210938 12.828125 -24.640625 C 13.023438 -24.734375 13.226562 -24.882812 13.4375 -25.09375 C 13.5 -25.15625 13.570312 -25.21875 13.65625 -25.28125 C 13.738281 -25.351562 13.832031 -25.425781 13.9375 -25.5 L 17.484375 -30.3125 L 17.390625 -30.921875 L 18.65625 -32.140625 C 18.988281 -32.410156 19.304688 -32.6875 19.609375 -32.96875 C 19.921875 -33.257812 20.175781 -33.59375 20.375 -33.96875 L 20.6875 -34.421875 C 22.207031 -36.441406 24.164062 -37.691406 26.5625 -38.171875 L 27.421875 -38.375 L 27.671875 -37.5625 C 27.847656 -37.082031 28.179688 -36.664062 28.671875 -36.3125 C 29.160156 -35.957031 29.691406 -35.613281 30.265625 -35.28125 L 30.8125 -34.921875 C 31.019531 -34.515625 31.125 -34.207031 31.125 -34 C 31.125 -33.800781 31.109375 -33.632812 31.078125 -33.5 L 31.328125 -32.84375 C 30.953125 -31.863281 30.546875 -31.160156 30.109375 -30.734375 C 29.671875 -30.316406 29.210938 -29.921875 28.734375 -29.546875 C 28.367188 -29.242188 28.03125 -28.941406 27.71875 -28.640625 C 27.414062 -28.335938 27.179688 -28 27.015625 -27.625 L 26.609375 -27.125 C 25.765625 -26.675781 25.222656 -26.03125 24.984375 -25.1875 L 24.78125 -24.484375 L 24.03125 -24.484375 C 23.988281 -24.484375 23.898438 -24.40625 23.765625 -24.25 C 23.640625 -24.101562 23.441406 -23.742188 23.171875 -23.171875 C 22.859375 -22.765625 22.644531 -22.5 22.53125 -22.375 C 22.414062 -22.257812 22.320312 -22.164062 22.25 -22.09375 C 22.1875 -21.925781 22.128906 -21.773438 22.078125 -21.640625 C 22.023438 -21.503906 21.960938 -21.335938 21.890625 -21.140625 L 21.59375 -20.734375 C 21.289062 -20.460938 21.070312 -20.195312 20.9375 -19.9375 C 20.800781 -19.6875 20.648438 -19.394531 20.484375 -19.0625 C 20.347656 -18.757812 20.191406 -18.445312 20.015625 -18.125 C 19.847656 -17.800781 19.613281 -17.488281 19.3125 -17.1875 L 19.421875 -16.625 L 19.015625 -16.265625 C 18.742188 -16.035156 18.503906 -15.742188 18.296875 -15.390625 C 18.097656 -15.035156 17.894531 -14.671875 17.6875 -14.296875 C 17.488281 -13.890625 17.269531 -13.484375 17.03125 -13.078125 C 16.789062 -12.671875 16.488281 -12.300781 16.125 -11.96875 C 15.882812 -11.351562 15.671875 -10.875 15.484375 -10.53125 C 15.296875 -10.195312 14.984375 -9.796875 14.546875 -9.328125 C 14.140625 -7.703125 13.175781 -5.960938 11.65625 -4.109375 C 11.625 -3.734375 11.515625 -3.367188 11.328125 -3.015625 C 11.140625 -2.660156 10.945312 -2.332031 10.75 -2.03125 C 10.675781 -1.894531 10.597656 -1.75 10.515625 -1.59375 C 10.429688 -1.445312 10.375 -1.335938 10.34375 -1.265625 L 10.1875 -0.703125 C 9.988281 -0.335938 9.773438 -0.0351562 9.546875 0.203125 C 9.328125 0.441406 9.117188 0.660156 8.921875 0.859375 C 8.816406 0.929688 8.722656 1.015625 8.640625 1.109375 C 8.554688 1.210938 8.484375 1.300781 8.421875 1.375 Z M 7.546875 1.671875 "/></g></g></g><g fill="#7ca5b8" fill-opacity="1"><g transform="translate(479.783091, 281.838177)"><g/></g></g><g fill="#7ca5b8" fill-opacity="1"><g transform="translate(498.99114, 281.838177)"><g><path d="M 10.75 -3.546875 C 10.914062 -2.535156 10.851562 -1.738281 10.5625 -1.15625 C 10.28125 -0.582031 9.875 -0.15625 9.34375 0.125 C 8.820312 0.414062 8.222656 0.578125 7.546875 0.609375 C 6.867188 0.640625 6.226562 0.601562 5.625 0.5 C 5.289062 0.03125 4.988281 -0.554688 4.71875 -1.265625 C 4.445312 -1.972656 4.191406 -2.707031 3.953125 -3.46875 C 3.710938 -4.226562 3.5 -4.976562 3.3125 -5.71875 C 3.132812 -6.46875 2.976562 -7.128906 2.84375 -7.703125 C 3.007812 -8.109375 3.117188 -8.570312 3.171875 -9.09375 C 3.222656 -9.625 3.253906 -10.15625 3.265625 -10.6875 C 3.285156 -11.226562 3.300781 -11.773438 3.3125 -12.328125 C 3.332031 -12.890625 3.378906 -13.425781 3.453125 -13.9375 C 3.679688 -15.351562 4.023438 -16.703125 4.484375 -17.984375 C 4.941406 -19.273438 5.304688 -20.613281 5.578125 -22 C 5.640625 -22.300781 5.613281 -22.585938 5.5 -22.859375 C 5.382812 -23.128906 5.359375 -23.382812 5.421875 -23.625 C 5.453125 -23.757812 5.550781 -23.847656 5.71875 -23.890625 C 5.894531 -23.941406 6 -24.054688 6.03125 -24.234375 C 6.132812 -24.597656 6.160156 -24.898438 6.109375 -25.140625 C 6.054688 -25.378906 6.113281 -25.664062 6.28125 -26 C 6.445312 -26.269531 6.65625 -26.664062 6.90625 -27.1875 C 7.164062 -27.71875 7.265625 -28.269531 7.203125 -28.84375 C 7.503906 -29.039062 7.789062 -29.273438 8.0625 -29.546875 C 8.332031 -29.816406 8.609375 -30.0625 8.890625 -30.28125 C 9.179688 -30.5 9.503906 -30.691406 9.859375 -30.859375 C 10.210938 -31.035156 10.644531 -31.125 11.15625 -31.125 C 11.425781 -30.78125 11.601562 -30.40625 11.6875 -30 C 11.769531 -29.601562 11.851562 -29.203125 11.9375 -28.796875 C 12.019531 -28.390625 12.144531 -28.007812 12.3125 -27.65625 C 12.488281 -27.300781 12.773438 -27.019531 13.171875 -26.8125 C 13.171875 -26.539062 13.171875 -26.203125 13.171875 -25.796875 C 13.171875 -25.390625 13.1875 -24.992188 13.21875 -24.609375 C 13.257812 -24.222656 13.335938 -23.867188 13.453125 -23.546875 C 13.578125 -23.222656 13.773438 -23.007812 14.046875 -22.90625 C 13.429688 -21.289062 12.863281 -19.6875 12.34375 -18.09375 C 11.820312 -16.507812 11.390625 -14.910156 11.046875 -13.296875 C 10.710938 -11.691406 10.503906 -10.078125 10.421875 -8.453125 C 10.335938 -6.835938 10.445312 -5.203125 10.75 -3.546875 Z M 10.75 -3.546875 "/></g></g></g><g fill="#7ca5b8" fill-opacity="1"><g transform="translate(515.614474, 281.838177)"><g><path d="M 0.8125 -22.8125 C 1.050781 -23.519531 1.429688 -24.125 1.953125 -24.625 C 2.472656 -25.132812 3.046875 -25.566406 3.671875 -25.921875 C 4.296875 -26.273438 4.945312 -26.570312 5.625 -26.8125 C 6.300781 -27.050781 6.941406 -27.253906 7.546875 -27.421875 C 8.898438 -27.992188 10.34375 -28.539062 11.875 -29.0625 C 13.414062 -29.59375 14.988281 -30.0625 16.59375 -30.46875 C 18.207031 -30.875 19.859375 -31.132812 21.546875 -31.25 C 23.234375 -31.363281 25.003906 -31.148438 26.859375 -30.609375 C 26.960938 -30.273438 27.113281 -29.957031 27.3125 -29.65625 C 27.519531 -29.351562 27.734375 -29.046875 27.953125 -28.734375 C 28.171875 -28.429688 28.363281 -28.132812 28.53125 -27.84375 C 28.707031 -27.5625 28.8125 -27.269531 28.84375 -26.96875 C 29.175781 -26.664062 29.441406 -26.335938 29.640625 -25.984375 C 29.847656 -25.628906 29.882812 -25.160156 29.75 -24.578125 C 29.414062 -24.304688 29.085938 -24.0625 28.765625 -23.84375 C 28.441406 -23.625 28.097656 -23.429688 27.734375 -23.265625 C 26.484375 -23.566406 25.210938 -23.664062 23.921875 -23.5625 C 22.640625 -23.46875 21.492188 -23.382812 20.484375 -23.3125 C 20.171875 -23.625 19.800781 -23.78125 19.375 -23.78125 C 18.957031 -23.78125 18.519531 -23.710938 18.0625 -23.578125 C 17.613281 -23.441406 17.160156 -23.304688 16.703125 -23.171875 C 16.242188 -23.035156 15.8125 -23 15.40625 -23.0625 C 15.070312 -22.789062 14.660156 -22.613281 14.171875 -22.53125 C 13.679688 -22.445312 13.148438 -22.367188 12.578125 -22.296875 C 12.535156 -22.128906 12.566406 -22.019531 12.671875 -21.96875 C 12.773438 -21.914062 12.789062 -21.804688 12.71875 -21.640625 C 12.925781 -21.410156 13.1875 -21.242188 13.5 -21.140625 C 13.820312 -21.035156 14.160156 -20.929688 14.515625 -20.828125 C 14.878906 -20.734375 15.191406 -20.609375 15.453125 -20.453125 C 15.722656 -20.296875 15.910156 -20.050781 16.015625 -19.71875 C 16.523438 -19.71875 16.960938 -19.597656 17.328125 -19.359375 C 17.703125 -19.128906 18.007812 -18.84375 18.25 -18.5 C 18.488281 -18.164062 18.664062 -17.800781 18.78125 -17.40625 C 18.894531 -17.019531 18.953125 -16.675781 18.953125 -16.375 C 19.054688 -16.101562 19.175781 -15.984375 19.3125 -16.015625 C 19.445312 -16.046875 19.597656 -15.976562 19.765625 -15.8125 C 19.867188 -15.375 20.125 -14.925781 20.53125 -14.46875 C 20.9375 -14.007812 21.257812 -13.515625 21.5 -12.984375 C 21.5625 -12.128906 21.609375 -11.375 21.640625 -10.71875 C 21.671875 -10.0625 21.554688 -9.394531 21.296875 -8.71875 C 20.785156 -7.46875 20.082031 -6.351562 19.1875 -5.375 C 18.289062 -4.394531 17.273438 -3.523438 16.140625 -2.765625 C 15.015625 -2.003906 13.804688 -1.351562 12.515625 -0.8125 C 11.234375 -0.269531 9.984375 0.1875 8.765625 0.5625 C 8.628906 0.519531 8.492188 0.515625 8.359375 0.546875 C 8.222656 0.585938 8.191406 0.503906 8.265625 0.296875 C 7.992188 0.535156 7.695312 0.6875 7.375 0.75 C 7.050781 0.820312 6.703125 0.847656 6.328125 0.828125 C 5.960938 0.816406 5.582031 0.789062 5.1875 0.75 C 4.800781 0.71875 4.441406 0.738281 4.109375 0.8125 C 3.867188 0.570312 3.65625 0.34375 3.46875 0.125 C 3.28125 -0.09375 3.140625 -0.367188 3.046875 -0.703125 C 2.867188 -0.703125 2.789062 -0.785156 2.8125 -0.953125 C 2.832031 -1.128906 2.773438 -1.21875 2.640625 -1.21875 C 2.835938 -1.550781 2.925781 -1.742188 2.90625 -1.796875 C 2.894531 -1.847656 2.847656 -1.890625 2.765625 -1.921875 C 2.679688 -1.960938 2.601562 -2.003906 2.53125 -2.046875 C 2.46875 -2.097656 2.453125 -2.175781 2.484375 -2.28125 C 2.617188 -2.550781 2.664062 -2.863281 2.625 -3.21875 C 2.59375 -3.570312 2.5625 -3.929688 2.53125 -4.296875 C 2.5 -4.671875 2.523438 -5.023438 2.609375 -5.359375 C 2.691406 -5.703125 2.9375 -5.976562 3.34375 -6.1875 C 4.488281 -6.050781 5.578125 -6.09375 6.609375 -6.3125 C 7.640625 -6.53125 8.609375 -6.84375 9.515625 -7.25 C 10.429688 -7.65625 11.300781 -8.09375 12.125 -8.5625 C 12.957031 -9.039062 13.78125 -9.460938 14.59375 -9.828125 C 14.695312 -10.140625 14.84375 -10.394531 15.03125 -10.59375 C 15.21875 -10.789062 15.410156 -10.972656 15.609375 -11.140625 C 15.816406 -11.316406 16.003906 -11.503906 16.171875 -11.703125 C 16.335938 -11.910156 16.457031 -12.164062 16.53125 -12.46875 C 16.5625 -12.707031 16.5 -12.851562 16.34375 -12.90625 C 16.195312 -12.957031 16.125 -13.082031 16.125 -13.28125 L 15.5625 -13.4375 C 14.914062 -13.800781 14.1875 -14.109375 13.375 -14.359375 C 12.570312 -14.617188 11.878906 -14.898438 11.296875 -15.203125 C 10.929688 -15.003906 10.585938 -14.953125 10.265625 -15.046875 C 9.941406 -15.148438 9.523438 -15.253906 9.015625 -15.359375 C 7.867188 -15.421875 6.765625 -15.535156 5.703125 -15.703125 C 4.640625 -15.878906 3.617188 -16.1875 2.640625 -16.625 C 2.566406 -16.789062 2.476562 -16.941406 2.375 -17.078125 C 2.28125 -17.210938 2.097656 -17.25 1.828125 -17.1875 C 1.617188 -17.457031 1.410156 -17.71875 1.203125 -17.96875 C 1.003906 -18.21875 0.820312 -18.5 0.65625 -18.8125 C 0.726562 -19.21875 0.78125 -19.5625 0.8125 -19.84375 C 0.84375 -20.132812 0.738281 -20.414062 0.5 -20.6875 C 0.632812 -21.125 0.734375 -21.476562 0.796875 -21.75 C 0.867188 -22.019531 0.875 -22.375 0.8125 -22.8125 Z M 0.8125 -22.8125 "/></g></g></g><g fill="#7ca5b8" fill-opacity="1"><g transform="translate(539.687913, 281.838177)"><g><path d="M 10.390625 -9.21875 C 10.085938 -9.15625 9.867188 -8.976562 9.734375 -8.6875 C 9.597656 -8.40625 9.46875 -8.109375 9.34375 -7.796875 C 9.226562 -7.492188 9.109375 -7.21875 8.984375 -6.96875 C 8.867188 -6.71875 8.695312 -6.59375 8.46875 -6.59375 C 8.4375 -6.320312 8.34375 -6.082031 8.1875 -5.875 C 8.03125 -5.675781 7.882812 -5.46875 7.75 -5.25 C 7.613281 -5.03125 7.507812 -4.789062 7.4375 -4.53125 C 7.375 -4.28125 7.410156 -3.988281 7.546875 -3.65625 C 7.273438 -3.445312 7.101562 -3.15625 7.03125 -2.78125 C 6.96875 -2.414062 6.894531 -2.0625 6.8125 -1.71875 C 6.726562 -1.382812 6.582031 -1.097656 6.375 -0.859375 C 6.175781 -0.617188 5.804688 -0.519531 5.265625 -0.5625 C 5.171875 -0.425781 5.15625 -0.335938 5.21875 -0.296875 C 5.289062 -0.265625 5.34375 -0.148438 5.375 0.046875 C 5 -0.015625 4.71875 0.0078125 4.53125 0.125 C 4.351562 0.238281 4.128906 0.316406 3.859375 0.359375 C 3.210938 0.148438 2.675781 -0.203125 2.25 -0.703125 C 1.832031 -1.210938 1.460938 -1.78125 1.140625 -2.40625 C 0.816406 -3.03125 0.53125 -3.660156 0.28125 -4.296875 C 0.03125 -4.941406 -0.210938 -5.503906 -0.453125 -5.984375 C -0.347656 -6.347656 -0.328125 -6.707031 -0.390625 -7.0625 C -0.460938 -7.425781 -0.585938 -7.722656 -0.765625 -7.953125 C 0.890625 -11.472656 2.695312 -15.222656 4.65625 -19.203125 C 6.625 -23.191406 8.484375 -27.128906 10.234375 -31.015625 C 11.015625 -30.710938 11.785156 -30.367188 12.546875 -29.984375 C 13.304688 -29.597656 14 -29.148438 14.625 -28.640625 C 15.25 -28.128906 15.78125 -27.546875 16.21875 -26.890625 C 16.65625 -26.234375 16.941406 -25.5 17.078125 -24.6875 C 17.015625 -24.476562 16.941406 -24.398438 16.859375 -24.453125 C 16.773438 -24.503906 16.695312 -24.476562 16.625 -24.375 C 16.757812 -24.207031 16.832031 -24.085938 16.84375 -24.015625 C 16.863281 -23.953125 16.863281 -23.882812 16.84375 -23.8125 C 16.832031 -23.75 16.828125 -23.660156 16.828125 -23.546875 C 16.828125 -23.429688 16.878906 -23.269531 16.984375 -23.0625 C 16.847656 -23.09375 16.753906 -23.070312 16.703125 -23 C 16.648438 -22.9375 16.539062 -22.941406 16.375 -23.015625 C 16.507812 -22.640625 16.550781 -22.332031 16.5 -22.09375 C 16.445312 -21.863281 16.367188 -21.65625 16.265625 -21.46875 C 16.171875 -21.28125 16.085938 -21.078125 16.015625 -20.859375 C 15.953125 -20.640625 15.96875 -20.359375 16.0625 -20.015625 C 15.96875 -20.015625 15.894531 -19.988281 15.84375 -19.9375 C 15.789062 -19.894531 15.742188 -19.847656 15.703125 -19.796875 C 15.671875 -19.742188 15.628906 -19.691406 15.578125 -19.640625 C 15.535156 -19.585938 15.460938 -19.578125 15.359375 -19.609375 C 15.460938 -18.867188 15.492188 -18.125 15.453125 -17.375 C 15.421875 -16.632812 15.394531 -15.882812 15.375 -15.125 C 15.363281 -14.363281 15.375 -13.566406 15.40625 -12.734375 C 15.4375 -11.910156 15.554688 -11.0625 15.765625 -10.1875 C 16.984375 -10.894531 17.953125 -11.804688 18.671875 -12.921875 C 19.398438 -14.035156 19.992188 -15.285156 20.453125 -16.671875 C 20.910156 -18.054688 21.253906 -19.539062 21.484375 -21.125 C 21.722656 -22.71875 21.976562 -24.34375 22.25 -26 C 22.550781 -26.300781 22.785156 -26.671875 22.953125 -27.109375 C 23.128906 -27.554688 23.285156 -28.023438 23.421875 -28.515625 C 23.554688 -29.003906 23.691406 -29.492188 23.828125 -29.984375 C 23.960938 -30.472656 24.128906 -30.921875 24.328125 -31.328125 C 24.835938 -31.253906 25.269531 -31.09375 25.625 -30.84375 C 25.976562 -30.59375 26.304688 -30.320312 26.609375 -30.03125 C 26.910156 -29.75 27.226562 -29.476562 27.5625 -29.21875 C 27.90625 -28.96875 28.332031 -28.804688 28.84375 -28.734375 C 29.25 -28.160156 29.617188 -27.601562 29.953125 -27.0625 C 30.296875 -26.519531 30.515625 -25.945312 30.609375 -25.34375 C 30.441406 -25.070312 30.316406 -24.765625 30.234375 -24.421875 C 30.148438 -24.085938 30.054688 -23.75 29.953125 -23.40625 C 29.859375 -23.070312 29.722656 -22.757812 29.546875 -22.46875 C 29.378906 -22.1875 29.144531 -21.945312 28.84375 -21.75 C 28.738281 -20.863281 28.609375 -20.054688 28.453125 -19.328125 C 28.304688 -18.609375 28.15625 -17.894531 28 -17.1875 C 27.851562 -16.476562 27.726562 -15.742188 27.625 -14.984375 C 27.519531 -14.222656 27.488281 -13.382812 27.53125 -12.46875 C 27.257812 -11.6875 26.96875 -10.859375 26.65625 -9.984375 C 26.351562 -9.109375 26.117188 -8.316406 25.953125 -7.609375 C 25.410156 -7.160156 24.988281 -6.632812 24.6875 -6.03125 C 24.382812 -5.425781 24.0625 -4.816406 23.71875 -4.203125 C 23.582031 -4.066406 23.5 -4.03125 23.46875 -4.09375 C 23.4375 -4.164062 23.316406 -4.222656 23.109375 -4.265625 C 23.148438 -4.128906 23.148438 -4.023438 23.109375 -3.953125 C 23.078125 -3.890625 23.035156 -3.832031 22.984375 -3.78125 C 22.929688 -3.726562 22.894531 -3.648438 22.875 -3.546875 C 22.863281 -3.441406 22.894531 -3.304688 22.96875 -3.140625 C 22.488281 -2.941406 22.0625 -2.65625 21.6875 -2.28125 C 21.320312 -1.90625 20.925781 -1.566406 20.5 -1.265625 C 20.082031 -0.960938 19.578125 -0.757812 18.984375 -0.65625 C 18.390625 -0.550781 17.617188 -0.671875 16.671875 -1.015625 C 15.285156 -2.023438 14.0625 -3.1875 13 -4.5 C 11.9375 -5.820312 11.066406 -7.394531 10.390625 -9.21875 Z M 10.390625 -9.21875 "/></g></g></g><g fill="#7ca5b8" fill-opacity="1"><g transform="translate(568.981473, 281.838177)"><g><path d="M 15 -30.765625 C 14.96875 -30.597656 14.890625 -30.503906 14.765625 -30.484375 C 14.648438 -30.472656 14.5625 -30.382812 14.5 -30.21875 C 14.363281 -29.84375 14.273438 -29.613281 14.234375 -29.53125 C 14.203125 -29.445312 14.171875 -29.394531 14.140625 -29.375 C 14.109375 -29.351562 14.066406 -29.304688 14.015625 -29.234375 C 13.960938 -29.171875 13.867188 -28.972656 13.734375 -28.640625 C 13.492188 -28.171875 13.195312 -27.6875 12.84375 -27.1875 C 12.488281 -26.695312 12.265625 -26.21875 12.171875 -25.75 C 11.691406 -25.34375 11.101562 -24.828125 10.40625 -24.203125 C 9.71875 -23.578125 9.070312 -23.144531 8.46875 -22.90625 C 8.164062 -23.039062 7.679688 -23.25 7.015625 -23.53125 C 6.359375 -23.820312 5.734375 -24.160156 5.140625 -24.546875 C 4.554688 -24.941406 4.109375 -25.347656 3.796875 -25.765625 C 3.492188 -26.191406 3.53125 -26.609375 3.90625 -27.015625 C 4.507812 -27.660156 5.039062 -28.429688 5.5 -29.328125 C 5.957031 -30.222656 6.363281 -31.1875 6.71875 -32.21875 C 7.070312 -33.25 7.375 -34.3125 7.625 -35.40625 C 7.882812 -36.5 8.113281 -37.554688 8.3125 -38.578125 C 8.445312 -38.441406 8.585938 -38.398438 8.734375 -38.453125 C 8.890625 -38.503906 9.023438 -38.585938 9.140625 -38.703125 C 9.265625 -38.816406 9.382812 -38.957031 9.5 -39.125 C 9.625 -39.300781 9.71875 -39.4375 9.78125 -39.53125 C 9.988281 -39.363281 10.335938 -39.160156 10.828125 -38.921875 C 11.316406 -38.691406 11.828125 -38.46875 12.359375 -38.25 C 12.898438 -38.03125 13.40625 -37.832031 13.875 -37.65625 C 14.351562 -37.488281 14.695312 -37.390625 14.90625 -37.359375 C 15.3125 -36.710938 15.53125 -36.128906 15.5625 -35.609375 C 15.59375 -35.085938 15.675781 -34.539062 15.8125 -33.96875 C 15.613281 -33.789062 15.492188 -33.507812 15.453125 -33.125 C 15.421875 -32.738281 15.390625 -32.460938 15.359375 -32.296875 C 15.328125 -32.023438 15.269531 -31.863281 15.1875 -31.8125 C 15.101562 -31.757812 15.023438 -31.613281 14.953125 -31.375 C 14.921875 -31.3125 14.929688 -31.210938 14.984375 -31.078125 C 15.035156 -30.941406 15.039062 -30.835938 15 -30.765625 Z M 15 -30.765625 "/></g></g></g><g fill="#7ca5b8" fill-opacity="1"><g transform="translate(579.320376, 281.838177)"><g><path d="M 28.84375 -24.375 C 28 -24.375 27.085938 -24.316406 26.109375 -24.203125 C 25.128906 -24.085938 24.164062 -23.960938 23.21875 -23.828125 C 22.539062 -23.722656 21.890625 -23.632812 21.265625 -23.5625 C 20.640625 -23.5 20.070312 -23.453125 19.5625 -23.421875 C 19.332031 -22.671875 19.097656 -22.007812 18.859375 -21.4375 C 18.617188 -20.863281 18.363281 -20.304688 18.09375 -19.765625 C 17.820312 -19.191406 17.578125 -18.609375 17.359375 -18.015625 C 17.140625 -17.429688 16.929688 -16.800781 16.734375 -16.125 C 16.390625 -15.582031 16.109375 -15.082031 15.890625 -14.625 C 15.671875 -14.164062 15.492188 -13.648438 15.359375 -13.078125 C 14.953125 -12.566406 14.644531 -12.03125 14.4375 -11.46875 C 14.238281 -10.914062 14.085938 -10.4375 13.984375 -10.03125 L 13.78125 -9.421875 C 13.582031 -9.222656 13.460938 -9.0625 13.421875 -8.9375 C 13.390625 -8.820312 13.304688 -8.71875 13.171875 -8.625 C 13.140625 -8.25 13.023438 -7.875 12.828125 -7.5 C 12.753906 -7.332031 12.703125 -7.171875 12.671875 -7.015625 C 12.640625 -6.867188 12.625 -6.757812 12.625 -6.6875 C 12.625 -6.351562 12.539062 -6.132812 12.375 -6.03125 C 12.40625 -5.863281 12.398438 -5.6875 12.359375 -5.5 C 12.328125 -5.3125 12.296875 -5.132812 12.265625 -4.96875 C 12.160156 -4.5625 12.128906 -4.238281 12.171875 -4 C 12.265625 -3.863281 12.351562 -3.742188 12.4375 -3.640625 C 12.53125 -3.546875 12.59375 -3.414062 12.625 -3.25 C 12.820312 -3.113281 12.972656 -3.023438 13.078125 -2.984375 C 13.210938 -2.890625 13.414062 -2.773438 13.6875 -2.640625 L 14.140625 -2.125 C 14.304688 -1.144531 14.15625 -0.367188 13.6875 0.203125 C 13.175781 0.847656 12.3125 1.171875 11.09375 1.171875 L 10.5 1.171875 C 10.320312 0.992188 10.21875 0.859375 10.1875 0.765625 C 9.914062 0.660156 9.695312 0.570312 9.53125 0.5 C 9.363281 0.4375 9.210938 0.300781 9.078125 0.09375 C 8.640625 -0.101562 8.285156 -0.269531 8.015625 -0.40625 L 7.546875 -0.65625 C 7.546875 -1.03125 7.546875 -1.234375 7.546875 -1.265625 C 7.316406 -1.566406 7.140625 -1.90625 7.015625 -2.28125 C 6.898438 -2.65625 6.804688 -3.023438 6.734375 -3.390625 C 6.671875 -3.703125 6.597656 -3.988281 6.515625 -4.25 C 6.429688 -4.519531 6.320312 -4.757812 6.1875 -4.96875 C 6.113281 -6.925781 6.296875 -8.582031 6.734375 -9.9375 C 7.179688 -11.289062 7.640625 -12.59375 8.109375 -13.84375 C 8.378906 -14.519531 8.648438 -15.203125 8.921875 -15.890625 C 9.191406 -16.585938 9.425781 -17.304688 9.625 -18.046875 L 10.09375 -18.546875 C 10.320312 -19.085938 10.507812 -19.535156 10.65625 -19.890625 C 10.8125 -20.242188 10.976562 -20.609375 11.15625 -20.984375 C 11.25 -21.222656 11.335938 -21.453125 11.421875 -21.671875 C 11.515625 -21.890625 11.59375 -22.082031 11.65625 -22.25 C 11.457031 -22.25 11.269531 -22.238281 11.09375 -22.21875 C 10.925781 -22.207031 10.757812 -22.1875 10.59375 -22.15625 C 10.394531 -22.113281 10.207031 -22.082031 10.03125 -22.0625 C 9.863281 -22.050781 9.695312 -22.046875 9.53125 -22.046875 C 9.289062 -22.046875 9.117188 -22.0625 9.015625 -22.09375 C 8.648438 -21.925781 8.25 -21.84375 7.8125 -21.84375 L 7.296875 -21.84375 C 7.191406 -21.84375 7.097656 -21.847656 7.015625 -21.859375 C 6.929688 -21.878906 6.859375 -21.890625 6.796875 -21.890625 C 6.453125 -21.890625 6.179688 -21.84375 5.984375 -21.75 C 5.578125 -21.75 5.1875 -21.75 4.8125 -21.75 L 4.3125 -21.75 C 4.238281 -21.75 4.148438 -21.738281 4.046875 -21.71875 C 3.953125 -21.695312 3.867188 -21.6875 3.796875 -21.6875 C 3.566406 -21.6875 3.316406 -21.710938 3.046875 -21.765625 C 2.773438 -21.816406 2.484375 -21.925781 2.171875 -22.09375 C 1.773438 -22.632812 1.507812 -22.925781 1.375 -22.96875 L 0.90625 -23.578125 C 0.875 -23.773438 0.820312 -23.96875 0.75 -24.15625 C 0.6875 -24.34375 0.625 -24.550781 0.5625 -24.78125 C 0.425781 -25.125 0.296875 -25.488281 0.171875 -25.875 C 0.0546875 -26.257812 0 -26.722656 0 -27.265625 C 0.03125 -27.535156 0.0976562 -27.738281 0.203125 -27.875 C 0.304688 -28.007812 0.390625 -28.128906 0.453125 -28.234375 L 0.609375 -29 L 1.265625 -28.9375 L 2.6875 -28.9375 C 3.769531 -28.9375 4.867188 -28.976562 5.984375 -29.0625 C 7.097656 -29.15625 8.242188 -29.25 9.421875 -29.34375 C 10.097656 -29.414062 10.78125 -29.484375 11.46875 -29.546875 C 12.164062 -29.617188 12.890625 -29.6875 13.640625 -29.75 C 13.773438 -30.0625 13.910156 -30.347656 14.046875 -30.609375 L 14.546875 -30.875 C 15.148438 -30.90625 15.578125 -30.828125 15.828125 -30.640625 C 16.085938 -30.453125 16.300781 -30.273438 16.46875 -30.109375 C 17.21875 -30.179688 17.972656 -30.257812 18.734375 -30.34375 C 19.492188 -30.425781 20.257812 -30.535156 21.03125 -30.671875 C 22.1875 -30.835938 23.34375 -30.988281 24.5 -31.125 C 25.664062 -31.257812 26.789062 -31.328125 27.875 -31.328125 C 28.351562 -31.328125 28.8125 -31.304688 29.25 -31.265625 C 29.6875 -31.234375 30.09375 -31.1875 30.46875 -31.125 L 30.96875 -30.765625 C 31.070312 -30.566406 31.21875 -30.378906 31.40625 -30.203125 C 31.59375 -30.035156 31.785156 -29.867188 31.984375 -29.703125 C 32.390625 -29.328125 32.796875 -28.882812 33.203125 -28.375 C 33.609375 -27.875 33.757812 -27.132812 33.65625 -26.15625 C 33.382812 -25.75 33.179688 -25.515625 33.046875 -25.453125 L 32.59375 -24.84375 L 32.09375 -24.890625 C 31.882812 -24.890625 31.695312 -24.863281 31.53125 -24.8125 C 31.363281 -24.757812 31.191406 -24.703125 31.015625 -24.640625 C 30.878906 -24.566406 30.742188 -24.503906 30.609375 -24.453125 C 30.472656 -24.398438 30.320312 -24.359375 30.15625 -24.328125 C 29.851562 -24.328125 29.609375 -24.332031 29.421875 -24.34375 C 29.234375 -24.363281 29.039062 -24.375 28.84375 -24.375 Z M 28.84375 -24.375 "/></g></g></g><g fill="#7ca5b8" fill-opacity="1"><g transform="translate(604.204686, 281.838177)"><g/></g></g><g fill="#7ca5b8" fill-opacity="1"><g transform="translate(623.412758, 281.838177)"><g><path d="M 28.28125 -28.53125 C 28.3125 -28.300781 28.316406 -28.125 28.296875 -28 C 28.285156 -27.882812 28.269531 -27.773438 28.25 -27.671875 C 28.238281 -27.578125 28.234375 -27.46875 28.234375 -27.34375 C 28.234375 -27.226562 28.265625 -27.050781 28.328125 -26.8125 C 27.617188 -25.664062 26.800781 -24.878906 25.875 -24.453125 C 24.945312 -24.035156 23.941406 -23.734375 22.859375 -23.546875 C 21.773438 -23.359375 20.664062 -23.160156 19.53125 -22.953125 C 18.40625 -22.753906 17.285156 -22.316406 16.171875 -21.640625 C 15.734375 -21.804688 15.335938 -21.804688 14.984375 -21.640625 C 14.628906 -21.472656 14.113281 -21.425781 13.4375 -21.5 C 13.226562 -21.289062 12.972656 -21.144531 12.671875 -21.0625 C 12.367188 -20.976562 12.066406 -20.882812 11.765625 -20.78125 C 11.898438 -20.476562 11.957031 -20.164062 11.9375 -19.84375 C 11.914062 -19.519531 11.957031 -19.257812 12.0625 -19.0625 C 13.25 -18.957031 14.554688 -18.972656 15.984375 -19.109375 C 17.421875 -19.242188 18.832031 -19.328125 20.21875 -19.359375 C 20.257812 -19.191406 20.242188 -19.082031 20.171875 -19.03125 C 20.109375 -18.976562 20.09375 -18.882812 20.125 -18.75 C 20.363281 -18.582031 20.597656 -18.367188 20.828125 -18.109375 C 21.066406 -17.859375 21.300781 -17.613281 21.53125 -17.375 C 21.769531 -17.144531 22.015625 -16.953125 22.265625 -16.796875 C 22.523438 -16.648438 22.828125 -16.59375 23.171875 -16.625 C 23.304688 -16.351562 23.394531 -16.054688 23.4375 -15.734375 C 23.488281 -15.410156 23.445312 -15.082031 23.3125 -14.75 C 22.769531 -14.375 22.226562 -13.992188 21.6875 -13.609375 C 21.15625 -13.222656 20.59375 -12.875 20 -12.5625 C 19.40625 -12.257812 18.78125 -12.015625 18.125 -11.828125 C 17.46875 -11.648438 16.734375 -11.578125 15.921875 -11.609375 C 15.742188 -11.609375 15.613281 -11.609375 15.53125 -11.609375 C 15.445312 -11.609375 15.335938 -11.660156 15.203125 -11.765625 C 14.929688 -11.585938 14.550781 -11.53125 14.0625 -11.59375 C 13.570312 -11.664062 13.191406 -11.617188 12.921875 -11.453125 C 12.554688 -11.617188 12.109375 -11.691406 11.578125 -11.671875 C 11.054688 -11.660156 10.59375 -11.722656 10.1875 -11.859375 C 9.644531 -11.148438 9.15625 -10.390625 8.71875 -9.578125 C 8.28125 -8.765625 7.890625 -7.90625 7.546875 -7 C 8.703125 -6.820312 9.660156 -6.75 10.421875 -6.78125 C 11.179688 -6.820312 11.894531 -6.882812 12.5625 -6.96875 C 13.238281 -7.050781 13.929688 -7.132812 14.640625 -7.21875 C 15.359375 -7.300781 16.253906 -7.328125 17.328125 -7.296875 C 18.003906 -7.671875 18.804688 -7.914062 19.734375 -8.03125 C 20.671875 -8.15625 21.523438 -8.351562 22.296875 -8.625 C 22.566406 -8.519531 22.800781 -8.335938 23 -8.078125 C 23.207031 -7.828125 23.40625 -7.59375 23.59375 -7.375 C 23.78125 -7.15625 23.972656 -6.957031 24.171875 -6.78125 C 24.378906 -6.613281 24.632812 -6.550781 24.9375 -6.59375 C 25.070312 -6.457031 25.164062 -6.296875 25.21875 -6.109375 C 25.269531 -5.921875 25.3125 -5.742188 25.34375 -5.578125 C 25.375 -5.410156 25.429688 -5.265625 25.515625 -5.140625 C 25.609375 -5.023438 25.753906 -4.984375 25.953125 -5.015625 C 25.441406 -3.898438 24.859375 -3.046875 24.203125 -2.453125 C 23.546875 -1.867188 22.796875 -1.421875 21.953125 -1.109375 C 21.109375 -0.804688 20.171875 -0.570312 19.140625 -0.40625 C 18.109375 -0.238281 16.96875 -0.0351562 15.71875 0.203125 C 15.40625 0.265625 15.148438 0.253906 14.953125 0.171875 C 14.753906 0.0859375 14.519531 0.046875 14.25 0.046875 C 13.46875 0.210938 12.535156 0.363281 11.453125 0.5 C 10.367188 0.632812 9.269531 0.6875 8.15625 0.65625 C 7.039062 0.625 5.976562 0.476562 4.96875 0.21875 C 3.957031 -0.03125 3.128906 -0.472656 2.484375 -1.109375 C 2.210938 -1.347656 2.035156 -1.628906 1.953125 -1.953125 C 1.867188 -2.273438 1.640625 -2.519531 1.265625 -2.6875 C 1.234375 -3.125 1.164062 -3.613281 1.0625 -4.15625 C 0.957031 -4.695312 0.851562 -5.257812 0.75 -5.84375 C 0.65625 -6.4375 0.582031 -7.019531 0.53125 -7.59375 C 0.476562 -8.175781 0.503906 -8.703125 0.609375 -9.171875 C 0.710938 -9.679688 0.921875 -10.140625 1.234375 -10.546875 C 1.554688 -10.953125 1.671875 -11.390625 1.578125 -11.859375 C 1.742188 -11.890625 1.84375 -11.984375 1.875 -12.140625 C 1.90625 -12.296875 2.039062 -12.351562 2.28125 -12.3125 C 2.476562 -12.925781 2.695312 -13.503906 2.9375 -14.046875 C 3.175781 -14.585938 3.421875 -15.109375 3.671875 -15.609375 C 3.929688 -16.117188 4.1875 -16.632812 4.4375 -17.15625 C 4.6875 -17.675781 4.929688 -18.257812 5.171875 -18.90625 C 4.691406 -19.34375 4.34375 -19.820312 4.125 -20.34375 C 3.90625 -20.875 3.742188 -21.398438 3.640625 -21.921875 C 3.546875 -22.441406 3.460938 -22.976562 3.390625 -23.53125 C 3.328125 -24.09375 3.210938 -24.664062 3.046875 -25.25 C 3.378906 -25.75 3.789062 -26.160156 4.28125 -26.484375 C 4.769531 -26.804688 5.300781 -27.066406 5.875 -27.265625 C 6.445312 -27.472656 7.070312 -27.644531 7.75 -27.78125 C 8.425781 -27.914062 9.140625 -28.066406 9.890625 -28.234375 C 11.234375 -28.671875 12.4375 -29.007812 13.5 -29.25 C 14.570312 -29.488281 15.625 -29.679688 16.65625 -29.828125 C 17.6875 -29.984375 18.757812 -30.128906 19.875 -30.265625 C 20.988281 -30.398438 22.253906 -30.601562 23.671875 -30.875 C 23.972656 -30.5625 24.257812 -30.40625 24.53125 -30.40625 C 24.664062 -30.71875 24.828125 -30.8125 25.015625 -30.6875 C 25.203125 -30.570312 25.28125 -30.664062 25.25 -30.96875 C 25.582031 -30.394531 26.007812 -29.910156 26.53125 -29.515625 C 27.0625 -29.128906 27.644531 -28.800781 28.28125 -28.53125 Z M 28.28125 -28.53125 "/></g></g></g><g fill="#7ca5b8" fill-opacity="1"><g transform="translate(650.476335, 281.838177)"><g><path d="M 10.390625 -9.21875 C 10.085938 -9.15625 9.867188 -8.976562 9.734375 -8.6875 C 9.597656 -8.40625 9.46875 -8.109375 9.34375 -7.796875 C 9.226562 -7.492188 9.109375 -7.21875 8.984375 -6.96875 C 8.867188 -6.71875 8.695312 -6.59375 8.46875 -6.59375 C 8.4375 -6.320312 8.34375 -6.082031 8.1875 -5.875 C 8.03125 -5.675781 7.882812 -5.46875 7.75 -5.25 C 7.613281 -5.03125 7.507812 -4.789062 7.4375 -4.53125 C 7.375 -4.28125 7.410156 -3.988281 7.546875 -3.65625 C 7.273438 -3.445312 7.101562 -3.15625 7.03125 -2.78125 C 6.96875 -2.414062 6.894531 -2.0625 6.8125 -1.71875 C 6.726562 -1.382812 6.582031 -1.097656 6.375 -0.859375 C 6.175781 -0.617188 5.804688 -0.519531 5.265625 -0.5625 C 5.171875 -0.425781 5.15625 -0.335938 5.21875 -0.296875 C 5.289062 -0.265625 5.34375 -0.148438 5.375 0.046875 C 5 -0.015625 4.71875 0.0078125 4.53125 0.125 C 4.351562 0.238281 4.128906 0.316406 3.859375 0.359375 C 3.210938 0.148438 2.675781 -0.203125 2.25 -0.703125 C 1.832031 -1.210938 1.460938 -1.78125 1.140625 -2.40625 C 0.816406 -3.03125 0.53125 -3.660156 0.28125 -4.296875 C 0.03125 -4.941406 -0.210938 -5.503906 -0.453125 -5.984375 C -0.347656 -6.347656 -0.328125 -6.707031 -0.390625 -7.0625 C -0.460938 -7.425781 -0.585938 -7.722656 -0.765625 -7.953125 C 0.890625 -11.472656 2.695312 -15.222656 4.65625 -19.203125 C 6.625 -23.191406 8.484375 -27.128906 10.234375 -31.015625 C 11.015625 -30.710938 11.785156 -30.367188 12.546875 -29.984375 C 13.304688 -29.597656 14 -29.148438 14.625 -28.640625 C 15.25 -28.128906 15.78125 -27.546875 16.21875 -26.890625 C 16.65625 -26.234375 16.941406 -25.5 17.078125 -24.6875 C 17.015625 -24.476562 16.941406 -24.398438 16.859375 -24.453125 C 16.773438 -24.503906 16.695312 -24.476562 16.625 -24.375 C 16.757812 -24.207031 16.832031 -24.085938 16.84375 -24.015625 C 16.863281 -23.953125 16.863281 -23.882812 16.84375 -23.8125 C 16.832031 -23.75 16.828125 -23.660156 16.828125 -23.546875 C 16.828125 -23.429688 16.878906 -23.269531 16.984375 -23.0625 C 16.847656 -23.09375 16.753906 -23.070312 16.703125 -23 C 16.648438 -22.9375 16.539062 -22.941406 16.375 -23.015625 C 16.507812 -22.640625 16.550781 -22.332031 16.5 -22.09375 C 16.445312 -21.863281 16.367188 -21.65625 16.265625 -21.46875 C 16.171875 -21.28125 16.085938 -21.078125 16.015625 -20.859375 C 15.953125 -20.640625 15.96875 -20.359375 16.0625 -20.015625 C 15.96875 -20.015625 15.894531 -19.988281 15.84375 -19.9375 C 15.789062 -19.894531 15.742188 -19.847656 15.703125 -19.796875 C 15.671875 -19.742188 15.628906 -19.691406 15.578125 -19.640625 C 15.535156 -19.585938 15.460938 -19.578125 15.359375 -19.609375 C 15.460938 -18.867188 15.492188 -18.125 15.453125 -17.375 C 15.421875 -16.632812 15.394531 -15.882812 15.375 -15.125 C 15.363281 -14.363281 15.375 -13.566406 15.40625 -12.734375 C 15.4375 -11.910156 15.554688 -11.0625 15.765625 -10.1875 C 16.984375 -10.894531 17.953125 -11.804688 18.671875 -12.921875 C 19.398438 -14.035156 19.992188 -15.285156 20.453125 -16.671875 C 20.910156 -18.054688 21.253906 -19.539062 21.484375 -21.125 C 21.722656 -22.71875 21.976562 -24.34375 22.25 -26 C 22.550781 -26.300781 22.785156 -26.671875 22.953125 -27.109375 C 23.128906 -27.554688 23.285156 -28.023438 23.421875 -28.515625 C 23.554688 -29.003906 23.691406 -29.492188 23.828125 -29.984375 C 23.960938 -30.472656 24.128906 -30.921875 24.328125 -31.328125 C 24.835938 -31.253906 25.269531 -31.09375 25.625 -30.84375 C 25.976562 -30.59375 26.304688 -30.320312 26.609375 -30.03125 C 26.910156 -29.75 27.226562 -29.476562 27.5625 -29.21875 C 27.90625 -28.96875 28.332031 -28.804688 28.84375 -28.734375 C 29.25 -28.160156 29.617188 -27.601562 29.953125 -27.0625 C 30.296875 -26.519531 30.515625 -25.945312 30.609375 -25.34375 C 30.441406 -25.070312 30.316406 -24.765625 30.234375 -24.421875 C 30.148438 -24.085938 30.054688 -23.75 29.953125 -23.40625 C 29.859375 -23.070312 29.722656 -22.757812 29.546875 -22.46875 C 29.378906 -22.1875 29.144531 -21.945312 28.84375 -21.75 C 28.738281 -20.863281 28.609375 -20.054688 28.453125 -19.328125 C 28.304688 -18.609375 28.15625 -17.894531 28 -17.1875 C 27.851562 -16.476562 27.726562 -15.742188 27.625 -14.984375 C 27.519531 -14.222656 27.488281 -13.382812 27.53125 -12.46875 C 27.257812 -11.6875 26.96875 -10.859375 26.65625 -9.984375 C 26.351562 -9.109375 26.117188 -8.316406 25.953125 -7.609375 C 25.410156 -7.160156 24.988281 -6.632812 24.6875 -6.03125 C 24.382812 -5.425781 24.0625 -4.816406 23.71875 -4.203125 C 23.582031 -4.066406 23.5 -4.03125 23.46875 -4.09375 C 23.4375 -4.164062 23.316406 -4.222656 23.109375 -4.265625 C 23.148438 -4.128906 23.148438 -4.023438 23.109375 -3.953125 C 23.078125 -3.890625 23.035156 -3.832031 22.984375 -3.78125 C 22.929688 -3.726562 22.894531 -3.648438 22.875 -3.546875 C 22.863281 -3.441406 22.894531 -3.304688 22.96875 -3.140625 C 22.488281 -2.941406 22.0625 -2.65625 21.6875 -2.28125 C 21.320312 -1.90625 20.925781 -1.566406 20.5 -1.265625 C 20.082031 -0.960938 19.578125 -0.757812 18.984375 -0.65625 C 18.390625 -0.550781 17.617188 -0.671875 16.671875 -1.015625 C 15.285156 -2.023438 14.0625 -3.1875 13 -4.5 C 11.9375 -5.820312 11.066406 -7.394531 10.390625 -9.21875 Z M 10.390625 -9.21875 "/></g></g></g><g fill="#7ca5b8" fill-opacity="1"><g transform="translate(679.769917, 281.838177)"><g><path d="M 29.546875 -15.203125 C 29.515625 -14.796875 29.550781 -14.40625 29.65625 -14.03125 C 29.757812 -13.664062 29.882812 -13.304688 30.03125 -12.953125 C 30.1875 -12.597656 30.332031 -12.234375 30.46875 -11.859375 C 30.601562 -11.484375 30.703125 -11.113281 30.765625 -10.75 C 30.835938 -10.269531 30.835938 -9.75 30.765625 -9.1875 C 30.703125 -8.632812 30.582031 -8.097656 30.40625 -7.578125 C 30.238281 -7.054688 30.019531 -6.582031 29.75 -6.15625 C 29.476562 -5.738281 29.160156 -5.425781 28.796875 -5.21875 C 28.316406 -4.613281 27.738281 -4.140625 27.0625 -3.796875 C 26.382812 -3.460938 25.757812 -3.054688 25.1875 -2.578125 C 24.820312 -2.347656 24.410156 -2.179688 23.953125 -2.078125 C 23.492188 -1.972656 23.03125 -1.875 22.5625 -1.78125 C 22.1875 -1.570312 21.742188 -1.359375 21.234375 -1.140625 C 20.734375 -0.921875 20.210938 -0.71875 19.671875 -0.53125 C 19.128906 -0.34375 18.585938 -0.207031 18.046875 -0.125 C 17.503906 -0.0390625 17.03125 -0.015625 16.625 -0.046875 C 15.613281 0.316406 14.625 0.554688 13.65625 0.671875 C 12.695312 0.796875 11.578125 0.722656 10.296875 0.453125 C 9.078125 0.617188 7.953125 0.566406 6.921875 0.296875 C 5.890625 0.0351562 4.972656 -0.390625 4.171875 -0.984375 C 3.378906 -1.578125 2.6875 -2.285156 2.09375 -3.109375 C 1.507812 -3.941406 1.03125 -4.816406 0.65625 -5.734375 C 0.382812 -7.660156 0.453125 -9.40625 0.859375 -10.96875 C 1.265625 -12.539062 1.847656 -13.992188 2.609375 -15.328125 C 3.367188 -16.660156 4.238281 -17.894531 5.21875 -19.03125 C 6.195312 -20.164062 7.144531 -21.273438 8.0625 -22.359375 C 8.257812 -22.285156 8.414062 -22.289062 8.53125 -22.375 C 8.65625 -22.457031 8.765625 -22.578125 8.859375 -22.734375 C 8.960938 -22.890625 9.070312 -23.035156 9.1875 -23.171875 C 9.3125 -23.304688 9.457031 -23.390625 9.625 -23.421875 C 9.863281 -23.921875 10.210938 -24.296875 10.671875 -24.546875 C 11.128906 -24.804688 11.492188 -25.175781 11.765625 -25.65625 C 12.066406 -25.71875 12.316406 -25.816406 12.515625 -25.953125 C 12.722656 -26.085938 12.914062 -26.238281 13.09375 -26.40625 C 13.28125 -26.570312 13.472656 -26.734375 13.671875 -26.890625 C 13.878906 -27.046875 14.117188 -27.15625 14.390625 -27.21875 L 14.390625 -27.78125 C 15.003906 -28.050781 15.453125 -28.363281 15.734375 -28.71875 C 16.023438 -29.070312 16.375 -29.503906 16.78125 -30.015625 C 17.082031 -30.046875 17.328125 -30.0625 17.515625 -30.0625 C 17.703125 -30.0625 17.976562 -30.09375 18.34375 -30.15625 C 18.613281 -30.632812 18.859375 -30.988281 19.078125 -31.21875 C 19.304688 -31.457031 19.640625 -31.710938 20.078125 -31.984375 C 20.484375 -31.785156 20.929688 -31.648438 21.421875 -31.578125 C 21.910156 -31.515625 22.335938 -31.296875 22.703125 -30.921875 C 22.742188 -30.578125 22.847656 -30.3125 23.015625 -30.125 C 23.179688 -29.945312 23.363281 -29.78125 23.5625 -29.625 C 23.769531 -29.476562 23.96875 -29.316406 24.15625 -29.140625 C 24.34375 -28.972656 24.46875 -28.738281 24.53125 -28.4375 C 24.664062 -28.40625 24.757812 -28.421875 24.8125 -28.484375 C 24.863281 -28.554688 24.957031 -28.570312 25.09375 -28.53125 C 25.195312 -28.0625 25.316406 -27.75 25.453125 -27.59375 C 25.585938 -27.445312 25.722656 -27.15625 25.859375 -26.71875 C 25.679688 -26.375 25.550781 -26.023438 25.46875 -25.671875 C 25.382812 -25.316406 25.175781 -25.054688 24.84375 -24.890625 C 24.800781 -24.648438 24.863281 -24.519531 25.03125 -24.5 C 25.207031 -24.488281 25.3125 -24.398438 25.34375 -24.234375 C 25.375 -23.929688 25.320312 -23.710938 25.1875 -23.578125 C 26 -22.253906 26.722656 -20.859375 27.359375 -19.390625 C 28.003906 -17.921875 28.734375 -16.523438 29.546875 -15.203125 Z M 23.21875 -10.390625 C 23.351562 -10.765625 23.53125 -11.066406 23.75 -11.296875 C 23.96875 -11.535156 24.09375 -11.894531 24.125 -12.375 C 23.957031 -12.644531 23.859375 -12.851562 23.828125 -13 C 23.796875 -13.15625 23.78125 -13.398438 23.78125 -13.734375 C 23.03125 -14.785156 22.382812 -15.910156 21.84375 -17.109375 C 21.300781 -18.304688 20.691406 -19.429688 20.015625 -20.484375 C 19.953125 -20.347656 19.835938 -20.210938 19.671875 -20.078125 C 19.503906 -19.941406 19.316406 -19.972656 19.109375 -20.171875 C 19.046875 -19.898438 18.925781 -19.707031 18.75 -19.59375 C 18.582031 -19.476562 18.394531 -19.425781 18.1875 -19.4375 C 17.988281 -19.457031 17.78125 -19.507812 17.5625 -19.59375 C 17.34375 -19.675781 17.148438 -19.785156 16.984375 -19.921875 C 16.003906 -19.140625 15.023438 -18.378906 14.046875 -17.640625 C 13.066406 -16.898438 12.1875 -16.039062 11.40625 -15.0625 C 11.269531 -14.988281 11.179688 -14.957031 11.140625 -14.96875 C 11.109375 -14.988281 11.007812 -14.96875 10.84375 -14.90625 C 10.570312 -14.257812 10.242188 -13.675781 9.859375 -13.15625 C 9.472656 -12.632812 9.09375 -12.101562 8.71875 -11.5625 C 8.34375 -11.019531 8.019531 -10.441406 7.75 -9.828125 C 7.476562 -9.222656 7.328125 -8.515625 7.296875 -7.703125 C 7.867188 -7.234375 8.546875 -6.945312 9.328125 -6.84375 C 10.109375 -6.738281 10.910156 -6.71875 11.734375 -6.78125 C 12.566406 -6.851562 13.378906 -6.960938 14.171875 -7.109375 C 14.960938 -7.265625 15.695312 -7.34375 16.375 -7.34375 C 17.789062 -7.6875 19.003906 -8.132812 20.015625 -8.6875 C 21.035156 -9.25 22.101562 -9.816406 23.21875 -10.390625 Z M 23.21875 -10.390625 "/></g></g></g><g fill="#7ca5b8" fill-opacity="1"><g transform="translate(711.394752, 281.838177)"><g><path d="M 29.90625 -28.84375 C 29.976562 -28.101562 30.097656 -27.460938 30.265625 -26.921875 C 30.429688 -26.378906 30.613281 -25.851562 30.8125 -25.34375 C 30.988281 -24.875 31.148438 -24.410156 31.296875 -23.953125 C 31.453125 -23.492188 31.5625 -22.941406 31.625 -22.296875 C 31.351562 -21.421875 31.160156 -20.609375 31.046875 -19.859375 C 30.929688 -19.117188 30.804688 -18.34375 30.671875 -17.53125 C 30.128906 -16.351562 29.601562 -15.304688 29.09375 -14.390625 C 28.582031 -13.484375 28.175781 -12.691406 27.875 -12.015625 C 27.707031 -11.847656 27.5625 -11.648438 27.4375 -11.421875 C 27.320312 -11.203125 27.195312 -10.976562 27.0625 -10.75 C 27 -10.644531 26.914062 -10.488281 26.8125 -10.28125 C 26.707031 -10.082031 26.625 -9.953125 26.5625 -9.890625 L 25.546875 -10.234375 L 25.34375 -8.96875 L 24.640625 -8.765625 L 24.125 -8.15625 C 23.488281 -7.039062 22.8125 -6.101562 22.09375 -5.34375 C 21.382812 -4.582031 20.582031 -3.90625 19.6875 -3.3125 C 18.789062 -2.726562 17.773438 -2.179688 16.640625 -1.671875 C 15.515625 -1.160156 14.242188 -0.601562 12.828125 0 C 12.253906 -0.0625 11.753906 -0.101562 11.328125 -0.125 C 10.910156 -0.144531 10.515625 -0.171875 10.140625 -0.203125 C 9.492188 -0.203125 8.695312 -0.253906 7.75 -0.359375 C 7.65625 -0.628906 7.503906 -0.8125 7.296875 -0.90625 C 7.097656 -1.007812 6.910156 -1.0625 6.734375 -1.0625 C 6.160156 -1.332031 5.726562 -1.726562 5.4375 -2.25 C 5.15625 -2.78125 4.878906 -3.347656 4.609375 -3.953125 C 4.441406 -4.328125 4.273438 -4.671875 4.109375 -4.984375 C 3.941406 -5.304688 3.753906 -5.640625 3.546875 -5.984375 L 4.40625 -6.234375 L 3.296875 -7.453125 C 3.222656 -7.554688 3.132812 -7.648438 3.03125 -7.734375 C 2.9375 -7.816406 2.851562 -7.910156 2.78125 -8.015625 L 2.734375 -8.8125 C 2.628906 -11.144531 2.585938 -13.28125 2.609375 -15.21875 C 2.628906 -17.164062 2.890625 -18.898438 3.390625 -20.421875 L 3.390625 -20.984375 C 3.492188 -21.722656 3.597656 -22.335938 3.703125 -22.828125 C 3.804688 -23.328125 3.890625 -23.796875 3.953125 -24.234375 C 4.054688 -24.972656 4.207031 -25.664062 4.40625 -26.3125 C 4.882812 -26.40625 5.238281 -26.597656 5.46875 -26.890625 C 5.707031 -27.179688 5.910156 -27.441406 6.078125 -27.671875 C 6.554688 -27.710938 6.878906 -27.644531 7.046875 -27.46875 C 7.210938 -27.300781 7.378906 -27.03125 7.546875 -26.65625 C 7.722656 -26.351562 7.9375 -26.015625 8.1875 -25.640625 C 8.4375 -25.273438 8.816406 -24.988281 9.328125 -24.78125 C 9.390625 -24.507812 9.476562 -24.226562 9.59375 -23.9375 C 9.71875 -23.65625 9.847656 -23.347656 9.984375 -23.015625 C 10.253906 -22.441406 10.5 -21.84375 10.71875 -21.21875 C 10.9375 -20.59375 11.0625 -19.992188 11.09375 -19.421875 C 10.757812 -18.773438 10.5 -18.03125 10.3125 -17.1875 C 10.125 -16.34375 10.003906 -15.488281 9.953125 -14.625 C 9.910156 -13.757812 9.929688 -12.929688 10.015625 -12.140625 C 10.097656 -11.347656 10.238281 -10.679688 10.4375 -10.140625 L 10.75 -9.484375 L 11.609375 -9.578125 C 12.617188 -9.847656 13.535156 -10.144531 14.359375 -10.46875 C 15.191406 -10.789062 15.960938 -11.171875 16.671875 -11.609375 C 17.378906 -12.046875 18.054688 -12.5625 18.703125 -13.15625 C 19.347656 -13.75 20.023438 -14.429688 20.734375 -15.203125 C 21.441406 -15.984375 22.054688 -16.867188 22.578125 -17.859375 C 23.109375 -18.859375 23.550781 -19.898438 23.90625 -20.984375 C 24.257812 -22.066406 24.523438 -23.140625 24.703125 -24.203125 C 24.890625 -25.265625 25.019531 -26.269531 25.09375 -27.21875 C 25.664062 -27.425781 25.953125 -27.832031 25.953125 -28.4375 L 25.859375 -29 C 25.722656 -29.195312 25.722656 -29.429688 25.859375 -29.703125 C 26.054688 -30.347656 26.523438 -30.835938 27.265625 -31.171875 C 27.804688 -30.835938 28.285156 -30.46875 28.703125 -30.0625 C 29.128906 -29.65625 29.53125 -29.25 29.90625 -28.84375 Z M 29.90625 -28.84375 "/></g></g></g><g fill="#7ca5b8" fill-opacity="1"><g transform="translate(741.752622, 281.838177)"><g><path d="M 35.9375 -9.125 C 35.125 -7.664062 34.054688 -6.539062 32.734375 -5.75 C 31.421875 -4.957031 29.96875 -4.296875 28.375 -3.765625 C 26.789062 -3.242188 25.128906 -2.78125 23.390625 -2.375 C 21.648438 -1.976562 19.96875 -1.457031 18.34375 -0.8125 C 17.875 -0.8125 17.460938 -0.789062 17.109375 -0.75 C 16.753906 -0.71875 16.414062 -0.675781 16.09375 -0.625 C 15.769531 -0.582031 15.457031 -0.535156 15.15625 -0.484375 C 14.851562 -0.429688 14.515625 -0.390625 14.140625 -0.359375 C 14.003906 -0.390625 13.921875 -0.363281 13.890625 -0.28125 C 13.859375 -0.195312 13.804688 -0.117188 13.734375 -0.046875 C 13.160156 0.046875 12.644531 0.09375 12.1875 0.09375 C 11.726562 0.09375 11.347656 0.09375 11.046875 0.09375 C 10.640625 0.09375 10.222656 0.148438 9.796875 0.265625 C 9.378906 0.390625 9.003906 0.4375 8.671875 0.40625 C 6.128906 0.269531 4.140625 -0.628906 2.703125 -2.296875 C 1.273438 -3.972656 0.472656 -6.300781 0.296875 -9.28125 C 0.335938 -9.445312 0.3125 -9.546875 0.21875 -9.578125 C 0.132812 -9.609375 0.0625 -9.660156 0 -9.734375 C 0 -10.066406 0.0390625 -10.351562 0.125 -10.59375 C 0.207031 -10.832031 0.21875 -11.132812 0.15625 -11.5 C 1.03125 -13.363281 2.023438 -15.097656 3.140625 -16.703125 C 4.253906 -18.304688 5.585938 -19.71875 7.140625 -20.9375 C 7.378906 -21.132812 7.582031 -21.332031 7.75 -21.53125 C 7.925781 -21.738281 8.085938 -21.941406 8.234375 -22.140625 C 8.390625 -22.347656 8.566406 -22.523438 8.765625 -22.671875 C 8.972656 -22.828125 9.226562 -22.941406 9.53125 -23.015625 C 10.238281 -23.828125 11.082031 -24.566406 12.0625 -25.234375 C 13.039062 -25.910156 14.070312 -26.5625 15.15625 -27.1875 C 16.238281 -27.8125 17.3125 -28.4375 18.375 -29.0625 C 19.4375 -29.695312 20.410156 -30.398438 21.296875 -31.171875 C 21.660156 -31.003906 21.925781 -30.953125 22.09375 -31.015625 C 22.269531 -31.085938 22.457031 -31.085938 22.65625 -31.015625 C 22.894531 -30.515625 23.222656 -30.160156 23.640625 -29.953125 C 24.066406 -29.753906 24.488281 -29.546875 24.90625 -29.328125 C 25.332031 -29.109375 25.726562 -28.84375 26.09375 -28.53125 C 26.46875 -28.226562 26.757812 -27.828125 26.96875 -27.328125 C 26.757812 -27.328125 26.664062 -27.25 26.6875 -27.09375 C 26.707031 -26.9375 26.75 -26.78125 26.8125 -26.625 C 26.882812 -26.476562 26.910156 -26.328125 26.890625 -26.171875 C 26.867188 -26.023438 26.742188 -25.953125 26.515625 -25.953125 C 26.546875 -25.785156 26.65625 -25.691406 26.84375 -25.671875 C 27.03125 -25.660156 27.125 -25.566406 27.125 -25.390625 C 27.125 -25.222656 27.078125 -25.085938 26.984375 -24.984375 C 26.898438 -24.890625 26.894531 -24.722656 26.96875 -24.484375 C 26.289062 -24.046875 25.535156 -23.625 24.703125 -23.21875 C 23.878906 -22.8125 23.019531 -22.378906 22.125 -21.921875 C 21.226562 -21.460938 20.296875 -20.972656 19.328125 -20.453125 C 18.367188 -19.929688 17.4375 -19.332031 16.53125 -18.65625 C 15.613281 -17.976562 14.679688 -17.222656 13.734375 -16.390625 C 12.785156 -15.566406 11.875 -14.695312 11 -13.78125 C 10.125 -12.875 9.296875 -11.9375 8.515625 -10.96875 C 7.734375 -10.007812 7.070312 -9.054688 6.53125 -8.109375 C 6.601562 -7.941406 6.679688 -7.816406 6.765625 -7.734375 C 6.847656 -7.648438 6.925781 -7.519531 7 -7.34375 C 8.082031 -7.28125 9.085938 -7.289062 10.015625 -7.375 C 10.941406 -7.457031 11.878906 -7.398438 12.828125 -7.203125 C 12.929688 -7.265625 13 -7.363281 13.03125 -7.5 C 13.0625 -7.632812 13.144531 -7.738281 13.28125 -7.8125 C 15.207031 -8.007812 17 -8.316406 18.65625 -8.734375 C 20.3125 -9.160156 22 -9.613281 23.71875 -10.09375 C 23.445312 -10.1875 23.203125 -10.273438 22.984375 -10.359375 C 22.765625 -10.453125 22.554688 -10.53125 22.359375 -10.59375 C 22.179688 -10.757812 22.1875 -10.898438 22.375 -11.015625 C 22.5625 -11.140625 22.722656 -11.269531 22.859375 -11.40625 C 22.390625 -11.675781 22.007812 -12.015625 21.71875 -12.421875 C 21.4375 -12.828125 21.257812 -13.367188 21.1875 -14.046875 C 21.394531 -14.210938 21.5 -14.410156 21.5 -14.640625 C 21.5 -14.878906 21.394531 -15.066406 21.1875 -15.203125 C 21.050781 -15.234375 20.96875 -15.234375 20.9375 -15.203125 C 20.90625 -15.171875 20.878906 -15.117188 20.859375 -15.046875 C 20.835938 -14.984375 20.8125 -14.925781 20.78125 -14.875 C 20.75 -14.820312 20.664062 -14.832031 20.53125 -14.90625 C 20.5625 -15.207031 20.632812 -15.457031 20.75 -15.65625 C 20.875 -15.863281 20.96875 -16.101562 21.03125 -16.375 L 24.53125 -18.703125 C 24.90625 -18.429688 25.363281 -18.132812 25.90625 -17.8125 C 26.445312 -17.488281 27.007812 -17.164062 27.59375 -16.84375 C 28.1875 -16.53125 28.796875 -16.210938 29.421875 -15.890625 C 30.046875 -15.566406 30.628906 -15.253906 31.171875 -14.953125 C 31.648438 -14.753906 32.070312 -14.484375 32.4375 -14.140625 C 32.8125 -13.804688 33.164062 -13.460938 33.5 -13.109375 C 33.84375 -12.753906 34.191406 -12.40625 34.546875 -12.0625 C 34.898438 -11.726562 35.3125 -11.441406 35.78125 -11.203125 C 35.71875 -10.765625 35.734375 -10.410156 35.828125 -10.140625 C 35.929688 -9.867188 35.96875 -9.53125 35.9375 -9.125 Z M 35.9375 -9.125 "/></g></g></g><g fill="#7ca5b8" fill-opacity="1"><g transform="translate(775.607462, 281.838177)"><g><path d="M 25.953125 -4.921875 C 26.015625 -4.035156 25.910156 -3.304688 25.640625 -2.734375 C 25.378906 -2.160156 25.007812 -1.671875 24.53125 -1.265625 C 24.0625 -0.859375 23.519531 -0.535156 22.90625 -0.296875 C 22.300781 -0.0664062 21.710938 0.148438 21.140625 0.359375 C 20.867188 0.179688 20.601562 0.00390625 20.34375 -0.171875 C 20.09375 -0.359375 19.800781 -0.503906 19.46875 -0.609375 C 19.03125 -1.421875 18.609375 -2.140625 18.203125 -2.765625 C 17.796875 -3.390625 17.609375 -4.109375 17.640625 -4.921875 C 17.640625 -4.953125 17.664062 -5.132812 17.71875 -5.46875 C 17.769531 -5.8125 17.835938 -6.1875 17.921875 -6.59375 C 18.003906 -7 18.070312 -7.378906 18.125 -7.734375 C 18.175781 -8.085938 18.203125 -8.28125 18.203125 -8.3125 C 17.421875 -8.25 16.609375 -8.082031 15.765625 -7.8125 C 14.921875 -7.539062 14.097656 -7.21875 13.296875 -6.84375 C 12.503906 -6.46875 11.757812 -6.09375 11.0625 -5.71875 C 10.375 -5.351562 9.8125 -5.035156 9.375 -4.765625 C 9.375 -4.660156 9.304688 -4.414062 9.171875 -4.03125 C 9.035156 -3.644531 8.863281 -3.238281 8.65625 -2.8125 C 8.457031 -2.382812 8.238281 -2.003906 8 -1.671875 C 7.769531 -1.335938 7.535156 -1.171875 7.296875 -1.171875 C 7.328125 -1.066406 7.375 -0.960938 7.4375 -0.859375 C 7.507812 -0.753906 7.515625 -0.617188 7.453125 -0.453125 C 6.972656 -0.316406 6.546875 -0.140625 6.171875 0.078125 C 5.804688 0.296875 5.421875 0.476562 5.015625 0.625 C 4.609375 0.78125 4.164062 0.859375 3.6875 0.859375 C 3.21875 0.859375 2.664062 0.691406 2.03125 0.359375 C 2.03125 0.148438 1.941406 -0.0234375 1.765625 -0.171875 C 1.597656 -0.328125 1.421875 -0.460938 1.234375 -0.578125 C 1.054688 -0.703125 0.898438 -0.804688 0.765625 -0.890625 C 0.628906 -0.972656 0.5625 -1.046875 0.5625 -1.109375 C 0.382812 -1.078125 0.3125 -1.195312 0.34375 -1.46875 C 0.382812 -1.738281 0.523438 -1.804688 0.765625 -1.671875 C 0.390625 -2.140625 0.160156 -2.550781 0.078125 -2.90625 C -0.00390625 -3.269531 -0.195312 -3.722656 -0.5 -4.265625 C -0.4375 -4.328125 -0.378906 -4.441406 -0.328125 -4.609375 C -0.273438 -4.773438 -0.234375 -4.925781 -0.203125 -5.0625 C -0.171875 -5.195312 -0.117188 -5.296875 -0.046875 -5.359375 C 0.015625 -5.429688 0.0976562 -5.421875 0.203125 -5.328125 C 0.128906 -5.628906 0.125 -5.878906 0.1875 -6.078125 C 0.257812 -6.285156 0.328125 -6.472656 0.390625 -6.640625 C 0.460938 -6.804688 0.515625 -6.972656 0.546875 -7.140625 C 0.585938 -7.316406 0.539062 -7.503906 0.40625 -7.703125 C 0.945312 -8.441406 1.300781 -9.242188 1.46875 -10.109375 C 1.632812 -10.972656 1.738281 -11.757812 1.78125 -12.46875 C 2.007812 -12.707031 2.21875 -13.046875 2.40625 -13.484375 C 2.59375 -13.921875 2.734375 -14.367188 2.828125 -14.828125 C 2.929688 -15.285156 2.972656 -15.722656 2.953125 -16.140625 C 2.941406 -16.566406 2.882812 -16.914062 2.78125 -17.1875 C 2.820312 -17.351562 3.007812 -17.398438 3.34375 -17.328125 C 3.550781 -18.453125 3.695312 -19.710938 3.78125 -21.109375 C 3.863281 -22.515625 4.003906 -23.847656 4.203125 -25.109375 C 4.410156 -26.378906 4.75 -27.492188 5.21875 -28.453125 C 5.695312 -29.421875 6.457031 -30.054688 7.5 -30.359375 C 7.707031 -29.648438 7.96875 -29.023438 8.28125 -28.484375 C 8.601562 -27.941406 8.957031 -27.425781 9.34375 -26.9375 C 9.738281 -26.445312 10.128906 -25.945312 10.515625 -25.4375 C 10.898438 -24.9375 11.265625 -24.363281 11.609375 -23.71875 C 11.578125 -23.082031 11.507812 -22.335938 11.40625 -21.484375 C 11.300781 -20.640625 11.171875 -19.78125 11.015625 -18.90625 C 10.867188 -18.03125 10.71875 -17.1875 10.5625 -16.375 C 10.414062 -15.5625 10.273438 -14.867188 10.140625 -14.296875 C 10.171875 -14.128906 10.257812 -14.023438 10.40625 -13.984375 C 10.5625 -13.953125 10.59375 -13.800781 10.5 -13.53125 C 11.300781 -13.738281 12.140625 -13.925781 13.015625 -14.09375 C 13.898438 -14.257812 14.78125 -14.441406 15.65625 -14.640625 C 16.539062 -14.847656 17.394531 -15.078125 18.21875 -15.328125 C 19.050781 -15.585938 19.820312 -15.898438 20.53125 -16.265625 C 20.695312 -17.585938 20.914062 -18.90625 21.1875 -20.21875 C 21.457031 -21.539062 21.492188 -22.894531 21.296875 -24.28125 C 21.460938 -24.414062 21.59375 -24.582031 21.6875 -24.78125 C 21.789062 -24.988281 21.960938 -25.125 22.203125 -25.1875 C 22.035156 -25.832031 21.96875 -26.507812 22 -27.21875 C 22.03125 -27.925781 22.15625 -28.601562 22.375 -29.25 C 22.59375 -29.894531 22.910156 -30.441406 23.328125 -30.890625 C 23.753906 -31.347656 24.273438 -31.644531 24.890625 -31.78125 C 25.265625 -31.238281 25.582031 -30.65625 25.84375 -30.03125 C 26.113281 -29.40625 26.394531 -28.78125 26.6875 -28.15625 C 26.976562 -27.53125 27.28125 -26.9375 27.59375 -26.375 C 27.914062 -25.820312 28.332031 -25.34375 28.84375 -24.9375 C 28.945312 -23.957031 29.019531 -22.941406 29.0625 -21.890625 C 29.113281 -20.847656 29.160156 -19.785156 29.203125 -18.703125 C 28.929688 -17.421875 28.632812 -16.175781 28.3125 -14.96875 C 27.988281 -13.769531 27.757812 -12.5 27.625 -11.15625 C 27.382812 -10.882812 27.195312 -10.578125 27.0625 -10.234375 C 26.925781 -9.898438 26.789062 -9.554688 26.65625 -9.203125 C 26.519531 -8.847656 26.367188 -8.507812 26.203125 -8.1875 C 26.035156 -7.863281 25.832031 -7.582031 25.59375 -7.34375 C 25.726562 -6.9375 25.753906 -6.554688 25.671875 -6.203125 C 25.585938 -5.847656 25.679688 -5.421875 25.953125 -4.921875 Z M 25.953125 -4.921875 "/></g></g></g></svg>